<svg width="1200" height="720" viewBox="0 0 1200 720" fill="none" xmlns="http://www.w3.org/2000/svg">
  <rect width="1200" height="720" rx="28" fill="#17191D"/>
  <rect x="48" y="48" width="1104" height="624" rx="24" fill="#1E2127" stroke="#2B313B"/>
  <rect x="92" y="96" width="420" height="528" rx="24" fill="#14171C" stroke="#2F3641"/>
  <rect x="560" y="96" width="548" height="528" rx="24" fill="#14171C" stroke="#2F3641"/>
  <text x="132" y="164" fill="#F6F7FB" font-family="Arial, sans-serif" font-size="54" font-weight="700">drift</text>
  <text x="132" y="208" fill="#8FB8FF" font-family="Arial, sans-serif" font-size="24">git-like server state tracker</text>
  <rect x="132" y="260" width="340" height="56" rx="14" fill="#0F1115" stroke="#313847"/>
  <text x="156" y="296" fill="#7FE7D7" font-family="Courier New, monospace" font-size="24">snapshot   diff   restore</text>
  <rect x="132" y="360" width="88" height="88" rx="18" fill="#7FE7D7" fill-opacity="0.12" stroke="#7FE7D7"/>
  <rect x="258" y="360" width="88" height="88" rx="18" fill="#89A8FF" fill-opacity="0.12" stroke="#89A8FF"/>
  <rect x="384" y="360" width="88" height="88" rx="18" fill="#FFC977" fill-opacity="0.12" stroke="#FFC977"/>
  <text x="154" y="410" fill="#DCE6FF" font-family="Arial, sans-serif" font-size="24" font-weight="700">S1</text>
  <text x="280" y="410" fill="#DCE6FF" font-family="Arial, sans-serif" font-size="24" font-weight="700">S2</text>
  <text x="406" y="410" fill="#DCE6FF" font-family="Arial, sans-serif" font-size="24" font-weight="700">S3</text>
  <path d="M220 404H258" stroke="#5A6476" stroke-width="4"/>
  <path d="M346 404H384" stroke="#5A6476" stroke-width="4"/>
  <text x="132" y="514" fill="#9CA7BA" font-family="Arial, sans-serif" font-size="22">Track state changes like commits.</text>
  <text x="132" y="548" fill="#9CA7BA" font-family="Arial, sans-serif" font-size="22">Inspect drift before it becomes downtime.</text>
  <rect x="620" y="140" width="420" height="112" rx="18" fill="#101318" stroke="#343C48"/>
  <text x="650" y="184" fill="#F6F7FB" font-family="Arial, sans-serif" font-size="28" font-weight="700">Current state</text>
  <text x="650" y="220" fill="#A7B4C8" font-family="Courier New, monospace" font-size="14">nginx=1.24.0  ssh=enabled  ufw=active</text>
  <rect x="620" y="288" width="420" height="112" rx="18" fill="#101318" stroke="#343C48"/>
  <text x="650" y="332" fill="#F6F7FB" font-family="Arial, sans-serif" font-size="28" font-weight="700">Previous snapshot</text>
  <text x="650" y="368" fill="#A7B4C8" font-family="Courier New, monospace" font-size="14">nginx=1.22.1  ssh=enabled  ufw=active</text>
  <rect x="620" y="436" width="420" height="132" rx="18" fill="#101318" stroke="#343C48"/>
  <text x="650" y="480" fill="#F6F7FB" font-family="Arial, sans-serif" font-size="28" font-weight="700">Drift summary</text>
  <text x="650" y="518" fill="#FFC977" font-family="Courier New, monospace" font-size="16">~ nginx changed 1.22.1 → 1.24.0</text>
  <text x="650" y="552" fill="#7FE7D7" font-family="Courier New, monospace" font-size="16">+ package cache updated</text>
</svg>
