<svg xmlns="http://www.w3.org/2000/svg" viewBox="0 0 400 100" fill="none">
  <rect width="400" height="100" fill="#000000"/>
  
  <!-- Pixelated "drift" text (scaled for rectangular format) -->
  <g fill="#FFFFFF">
    <!-- d -->
    <rect x="50" y="30" width="8" height="8"/>
    <rect x="58" y="30" width="8" height="8"/>
    <rect x="66" y="30" width="8" height="8"/>
    <rect x="74" y="30" width="8" height="8"/>
    <rect x="50" y="38" width="8" height="8"/>
    <rect x="82" y="38" width="8" height="8"/>
    <rect x="50" y="46" width="8" height="8"/>
    <rect x="82" y="46" width="8" height="8"/>
    <rect x="50" y="54" width="8" height="8"/>
    <rect x="82" y="54" width="8" height="8"/>
    <rect x="50" y="62" width="8" height="8"/>
    <rect x="58" y="62" width="8" height="8"/>
    <rect x="66" y="62" width="8" height="8"/>
    <rect x="74" y="62" width="8" height="8"/>
    
    <!-- r -->
    <rect x="105" y="38" width="8" height="8"/>
    <rect x="105" y="46" width="8" height="8"/>
    <rect x="105" y="54" width="8" height="8"/>
    <rect x="105" y="62" width="8" height="8"/>
    <rect x="113" y="38" width="8" height="8"/>
    <rect x="121" y="38" width="8" height="8"/>
    
    <!-- i -->
    <rect x="145" y="30" width="8" height="8"/>
    <rect x="145" y="46" width="8" height="8"/>
    <rect x="145" y="54" width="8" height="8"/>
    <rect x="145" y="62" width="8" height="8"/>
    
    <!-- f -->
    <rect x="170" y="30" width="8" height="8"/>
    <rect x="170" y="38" width="8" height="8"/>
    <rect x="162" y="46" width="8" height="8"/>
    <rect x="170" y="46" width="8" height="8"/>
    <rect x="178" y="46" width="8" height="8"/>
    <rect x="170" y="54" width="8" height="8"/>
    <rect x="170" y="62" width="8" height="8"/>
    
    <!-- t -->
    <rect x="202" y="38" width="8" height="8"/>
    <rect x="194" y="46" width="8" height="8"/>
    <rect x="202" y="46" width="8" height="8"/>
    <rect x="210" y="46" width="8" height="8"/>
    <rect x="202" y="54" width="8" height="8"/>
    <rect x="202" y="62" width="8" height="8"/>
    <rect x="210" y="62" width="8" height="8"/>
  </g>
</svg>
