<svg xmlns="http://www.w3.org/2000/svg" viewBox="0 0 400 100" fill="none">
  <rect width="400" height="100" fill="#000000"/>
  
  <!-- Pixelated "drift" text (scaled for rectangular format) -->
  <g fill="#FFFFFF">
    <!-- d -->
    <rect x="50" y="30" width="8" height="8"/>
    <rect x="58" y="30" width="8" height="8"/>
    <rect x="66" y="30" width="8" height="8"/>
    <rect x="50" y="38" width="8" height="8"/>
    <rect x="74" y="38" width="8" height="8"/>
    <rect x="50" y="46" width="8" height="8"/>
    <rect x="74" y="46" width="8" height="8"/>
    <rect x="50" y="54" width="8" height="8"/>
    <rect x="74" y="54" width="8" height="8"/>
    <rect x="50" y="62" width="8" height="8"/>
    <rect x="58" y="62" width="8" height="8"/>
    <rect x="66" y="62" width="8" height="8"/>
    
    <!-- r -->
    <rect x="95" y="38" width="8" height="8"/>
    <rect x="103" y="38" width="8" height="8"/>
    <rect x="95" y="46" width="8" height="8"/>
    <rect x="95" y="54" width="8" height="8"/>
    <rect x="95" y="62" width="8" height="8"/>
    
    <!-- i -->
    <rect x="125" y="30" width="8" height="8"/>
    <rect x="125" y="46" width="8" height="8"/>
    <rect x="125" y="54" width="8" height="8"/>
    <rect x="125" y="62" width="8" height="8"/>
    
    <!-- f -->
    <rect x="145" y="30" width="8" height="8"/>
    <rect x="145" y="38" width="8" height="8"/>
    <rect x="137" y="46" width="8" height="8"/>
    <rect x="145" y="46" width="8" height="8"/>
    <rect x="153" y="46" width="8" height="8"/>
    <rect x="145" y="54" width="8" height="8"/>
    <rect x="145" y="62" width="8" height="8"/>
    
    <!-- t -->
    <rect x="175" y="38" width="8" height="8"/>
    <rect x="167" y="46" width="8" height="8"/>
    <rect x="175" y="46" width="8" height="8"/>
    <rect x="183" y="46" width="8" height="8"/>
    <rect x="175" y="54" width="8" height="8"/>
    <rect x="175" y="62" width="8" height="8"/>
    <rect x="183" y="62" width="8" height="8"/>
  </g>
</svg>
