<?xml version="1.0" encoding="UTF-8"?>
<svg version="1.1" xmlns="http://www.w3.org/2000/svg" width="2000" height="2000">
<path d="M0 0 C660 0 1320 0 2000 0 C2000 660 2000 1320 2000 2000 C1340 2000 680 2000 0 2000 C0 1340 0 680 0 0 Z " fill="#FEFEFE" transform="translate(0,0)"/>
<path d="M0 0 C11.87136964 8.89953282 20.72093709 21.39463262 24 36 C25.0874727 47.96826819 24.92722155 59.89754354 20 71 C19.649375 71.79019531 19.29875 72.58039063 18.9375 73.39453125 C14.28374711 82.62124272 6.97505614 90.15802244 -0.30859375 97.35546875 C-0.85866089 97.9021521 -1.40872803 98.44883545 -1.97546387 99.01208496 C-3.31524569 100.34313382 -4.65737648 101.67181761 -6 103 C-4.7793195 102.99962297 -3.55863899 102.99924595 -2.30096817 102.9988575 C26.70901724 102.99123532 55.71886204 103.01457895 84.72877865 103.07579029 C88.30339756 103.08330587 91.87801695 103.09056145 95.45263672 103.09765625 C96.16424592 103.099073 96.87585513 103.10048975 97.60902825 103.10194944 C109.11459656 103.12423673 120.62007509 103.12548542 132.12565896 103.11888863 C143.94120816 103.11258509 155.75656928 103.12905389 167.57206178 103.16643608 C174.20459784 103.18677297 180.83685028 103.19602309 187.46941376 103.18042374 C193.71745439 103.16606116 199.96481018 103.17988754 206.21276283 103.21495247 C208.50076644 103.22289427 210.78883218 103.22070491 213.07681084 103.20739174 C236.93702268 103.08034255 236.93702268 103.08034255 246.89139938 111.62320137 C253.20470717 118.25322631 255.60805674 126.20838425 255.50057125 135.16929531 C255.5088425 136.49224461 255.5088425 136.49224461 255.51728085 137.84192017 C255.53084339 140.78832916 255.51599615 143.73388979 255.50120544 146.68028259 C255.50509947 148.81757352 255.51074072 150.95486185 255.51797634 153.09214407 C255.53273437 158.9586113 255.52254745 164.8248102 255.50823963 170.6912688 C255.49713575 177.02061781 255.50907055 183.34992901 255.51808167 189.67927551 C255.53121479 201.35970787 255.52622985 213.04003066 255.51200638 224.72045746 C255.49895026 235.5119092 255.49375947 246.30333009 255.49632454 257.09478951 C255.49656516 258.1688761 255.49656516 258.1688761 255.49681065 259.26466141 C255.49747424 262.17144589 255.49817666 265.07823036 255.49893599 267.98501482 C255.50595899 295.24932852 255.49047253 322.51358792 255.46431253 349.7778878 C255.44120021 373.99411348 255.43580849 398.21027945 255.44604492 422.42651367 C255.44864699 428.62719438 255.45123202 434.82787509 255.45364285 441.02855587 C255.45394029 441.79196155 255.45423774 442.55536724 255.4545442 443.34190642 C255.46216155 463.58329907 255.45574465 483.82468683 255.44494683 504.06607729 C255.44379903 506.24448198 255.44265586 508.42288667 255.44152 510.60129136 C255.44076475 512.04635533 255.43999911 513.4914193 255.43922299 514.93648326 C255.43356758 525.71976023 255.43489267 536.50302173 255.43945122 547.28629875 C255.44456184 559.54974667 255.43839492 571.81312021 255.41855692 584.07655685 C255.40868414 590.33393628 255.40357975 596.59122166 255.41144943 602.84860611 C255.41850659 608.57713438 255.4117005 614.30547289 255.3938458 620.03397615 C255.38980156 622.10587311 255.39080077 624.17778737 255.39736467 626.24967789 C255.47006213 651.34528381 255.47006213 651.34528381 246.96484375 660.24609375 C241.32696578 665.27871245 234.75138385 669.25304316 227.04313183 669.24609566 C225.57562301 669.2520688 225.57562301 669.2520688 224.07846755 669.25816262 C223.01134813 669.25233693 221.94422871 669.24651125 220.84477234 669.24050903 C219.70527266 669.24221788 218.56577298 669.24392673 217.391743 669.24568737 C213.56537906 669.24898718 209.73918965 669.23797028 205.9128418 669.22705078 C203.17322173 669.2253736 200.43360509 669.22671491 197.69398499 669.22793579 C191.79159926 669.22898434 185.88925776 669.22271088 179.98688316 669.21146011 C171.45305364 669.195204 162.9192455 669.18999699 154.38540218 669.18748413 C140.53971889 669.1831072 126.69405917 669.16979816 112.84838867 669.15087891 C99.3988456 669.13252005 85.94930893 669.11836357 72.49975586 669.10986328 C71.67068471 669.10933783 70.84161355 669.10881239 69.98741903 669.10827102 C65.82820044 669.10566094 61.66898179 669.10313352 57.50976312 669.10064721 C23.00649179 669.07991478 -11.49675157 669.0446893 -46 669 C-45.71213127 669.71879347 -45.42426255 670.43758695 -45.12767053 671.17816204 C-43.81138611 674.46536578 -42.49556361 677.75275423 -41.17974854 681.04014587 C-40.72689295 682.17087949 -40.27403736 683.30161311 -39.80745888 684.46661139 C-36.77504995 692.04392459 -33.77881854 699.63228098 -30.859375 707.25390625 C-30.44383362 708.33478012 -30.02829224 709.41565399 -29.60015869 710.52928162 C-28.74272965 712.76050589 -27.88608942 714.99203347 -27.03027344 717.22387695 C-25.73817955 720.5933247 -24.4435088 723.96177378 -23.1484375 727.33007812 C-20.75813824 733.55053439 -18.37727441 739.77455647 -16 746 C-15.66814697 746.86663269 -15.33629395 747.73326538 -14.99438477 748.62615967 C-14.12291156 750.90438938 -13.2558441 753.18423297 -12.390625 755.46484375 C-11.92172852 756.69710693 -11.45283203 757.92937012 -10.96972656 759.19897461 C-10 762 -10 762 -10 764 C-9.3117514 763.99111755 -8.62350281 763.98223511 -7.91439819 763.9730835 C-0.74428623 763.88451705 6.42567006 763.82422661 13.59619141 763.78027344 C16.27163375 763.76243175 18.94622016 763.73288951 21.62158203 763.69824219 C25.46918571 763.64966494 29.31620787 763.62701635 33.1640625 763.609375 C34.35802643 763.58872986 35.55199036 763.56808472 36.78213501 763.54681396 C43.16126379 763.54509426 47.18531323 763.6355309 52 768 C54.78149582 770.9226288 55.43131601 772.92409258 55.4375 776.9375 C55.32823692 780.47033951 55.07495173 781.87151132 53.25 785 C49.29873013 788.51223988 46.4699561 789.25008929 41.19904518 789.26006222 C40.00694329 789.26712781 38.8148414 789.2741934 37.5866152 789.2814731 C36.27554592 789.27905802 34.96447664 789.27664293 33.61367798 789.27415466 C32.20794209 789.27860632 30.8022087 789.28392013 29.39647901 789.29002339 C25.52914412 789.30422232 21.66188952 789.30586632 17.7945323 789.30542648 C13.62537945 789.307073 9.45625984 789.32013632 5.28712463 789.33161926 C-3.83051869 789.35448008 -12.94813876 789.36239084 -22.06580687 789.36744571 C-27.75718883 789.37070108 -33.44856403 789.37722254 -39.13994217 789.3844471 C-54.89338908 789.40401343 -70.64682969 789.42041778 -86.40028954 789.42332363 C-87.40859512 789.4235112 -88.4169007 789.42369877 -89.45576099 789.42389202 C-91.499892 789.42425828 -93.544023 789.42462198 -95.588154 789.42498314 C-97.11024531 789.42525735 -97.11024531 789.42525735 -98.66308594 789.42553711 C-100.18703159 789.42580793 -100.18703159 789.42580793 -101.74176402 789.42608423 C-118.21099113 789.42962731 -134.6800876 789.45665789 -151.14926939 789.494035 C-168.0521575 789.53208996 -184.95498074 789.5514809 -201.85791266 789.55178314 C-211.35069742 789.5523683 -220.8433263 789.56089807 -230.33607101 789.58978081 C-238.41775703 789.61425698 -246.4992303 789.62160304 -254.58094333 789.60653328 C-258.70531284 789.5993492 -262.82926193 789.6002858 -266.95358467 789.62294388 C-270.72885289 789.64348593 -274.50337621 789.64097919 -278.27863593 789.62006903 C-280.29215995 789.61490411 -282.3057005 789.63439014 -284.31912839 789.65473074 C-294.08484169 789.56347252 -294.08484169 789.56347252 -297.79001808 786.58657932 C-301.22917434 782.56136518 -301.45194719 779.80464023 -301.421875 774.6171875 C-300.73288992 770.34292823 -298.33018946 767.6495668 -295 765 C-291.89666117 763.96555372 -289.77123751 763.87916576 -286.51879883 763.88647461 C-285.39786331 763.88655014 -284.2769278 763.88662567 -283.12202454 763.88670349 C-281.91257675 763.89186478 -280.70312897 763.89702606 -279.45703125 763.90234375 C-277.59893074 763.90446617 -277.59893074 763.90446617 -275.70329285 763.90663147 C-272.41368463 763.91128398 -269.1241254 763.9202661 -265.83453369 763.93133545 C-262.47628377 763.94157371 -259.11802667 763.94613426 -255.75976562 763.95117188 C-249.17315788 763.96220855 -242.58658295 763.97895233 -236 764 C-235.83564453 763.41761566 -235.67128906 762.83523132 -235.50195312 762.23519897 C-233.50203943 755.34296593 -231.07674833 748.67173681 -228.5 741.9765625 C-228.06729797 740.84408585 -227.63459595 739.71160919 -227.18878174 738.54481506 C-225.79620861 734.90345231 -224.39832343 731.26415801 -223 727.625 C-222.28360768 725.75594825 -221.56772561 723.88670159 -220.85187149 722.01744366 C-202.33200068 673.66400136 -202.33200068 673.66400136 -200 669 C-200.57847417 669.00075944 -201.15694835 669.00151888 -201.75295204 669.00230134 C-236.04880808 669.04707126 -270.34465747 669.08138009 -304.64053636 669.10213066 C-308.75978796 669.10463203 -312.8790395 669.10722068 -316.99829102 669.10986328 C-317.81834928 669.1103879 -318.63840755 669.11091252 -319.48331607 669.11145304 C-332.75625727 669.12015229 -346.02918112 669.13591962 -359.30211204 669.15430559 C-372.9244539 669.173018 -386.54678669 669.18411956 -400.16914088 669.18817699 C-408.57278131 669.19091926 -416.9763727 669.19957618 -425.37999804 669.21583293 C-431.14506419 669.22641636 -436.91010503 669.22959755 -442.67518019 669.22700275 C-445.99981029 669.22572357 -449.32428584 669.22876333 -452.64891243 669.23841095 C-456.25855836 669.24837176 -459.86799502 669.24596453 -463.47764587 669.24050903 C-464.52144108 669.24633472 -465.56523629 669.2521604 -466.64066166 669.25816262 C-476.78893342 669.21675127 -485.20981662 667.91159127 -493 661 C-498.9070061 653.83081311 -501.30437517 647.57933392 -501.25447559 638.28886795 C-501.25768207 637.40784078 -501.26088855 636.52681361 -501.26419219 635.61908865 C-501.27252676 632.65201979 -501.26655579 629.68515097 -501.26069641 626.71807861 C-501.26371552 624.57528002 -501.26760379 622.43248251 -501.27228898 620.28968692 C-501.28260885 614.38952235 -501.28037702 608.48941828 -501.27610838 602.58924866 C-501.27364835 596.23054339 -501.28264637 589.87185296 -501.29014587 583.51315308 C-501.30291551 571.05061529 -501.30468955 558.58809967 -501.30234561 546.1255565 C-501.30051384 535.9975076 -501.30227011 525.86946504 -501.30657005 515.74141693 C-501.30717245 514.28696048 -501.30777365 512.83250402 -501.30837366 511.37804757 C-501.3092809 509.18637349 -501.31018957 506.99469941 -501.31110601 504.80302533 C-501.31953776 484.42098657 -501.32386976 464.0389502 -501.31969929 443.65690994 C-501.31954291 442.88827965 -501.31938654 442.11964936 -501.31922542 441.32772725 C-501.31841962 437.43190741 -501.31757385 433.53608758 -501.31671212 429.64026776 C-501.31654103 428.86653161 -501.31636994 428.09279546 -501.31619367 427.29561276 C-501.31584702 425.73092896 -501.31549849 424.16624516 -501.31514808 422.60156136 C-501.30979161 398.25844846 -501.31771828 373.91537177 -501.33618164 349.57226562 C-501.35689666 322.22836619 -501.36762521 294.88448919 -501.36360615 267.54058146 C-501.3632108 264.62500302 -501.36284926 261.70942458 -501.36250877 258.79384613 C-501.36241804 258.07594719 -501.36232731 257.35804825 -501.36223383 256.61839479 C-501.36106767 245.77912845 -501.36771767 234.93988477 -501.37832069 224.10062408 C-501.39036797 211.77228184 -501.39165877 199.44399903 -501.37953053 187.11565498 C-501.37362949 180.82399273 -501.37257622 174.53242807 -501.38453293 168.24077225 C-501.39534998 162.48192202 -501.39233814 156.72325136 -501.37827124 150.96440968 C-501.37561276 148.88029445 -501.37802679 146.79616534 -501.38600711 144.7120637 C-501.39610171 141.87932447 -501.38770073 139.04721079 -501.37473011 136.21449661 C-501.38203946 135.40530934 -501.3893488 134.59612207 -501.39687964 133.76241398 C-501.32488261 126.17675428 -499.61603941 119.0015302 -494.4375 113.25 C-493.83808594 112.55390625 -493.23867188 111.8578125 -492.62109375 111.140625 C-485.0979576 104.99654362 -478.02512311 103.2644755 -468.47369385 103.40786743 C-466.79501288 103.40274236 -466.79501288 103.40274236 -465.08241916 103.39751375 C-461.35432555 103.39198428 -457.62738004 103.42190506 -453.89941406 103.45166016 C-451.21802653 103.45466948 -448.53671252 103.45565202 -445.85533142 103.45396423 C-440.09264097 103.45399098 -434.33021973 103.47142382 -428.56760406 103.50011063 C-420.22944492 103.54097864 -411.89151779 103.54745898 -403.55327162 103.54436092 C-390.01448107 103.53960774 -376.47577284 103.5519512 -362.93701172 103.58007812 C-362.12780276 103.58175119 -361.31859381 103.58342426 -360.48486337 103.58514802 C-351.45040878 103.60416149 -342.41596789 103.62678064 -333.38153076 103.652771 C-330.101522 103.66213678 -326.82151307 103.67143848 -323.54150391 103.68066406 C-322.3273587 103.68409073 -322.3273587 103.68409073 -321.0886853 103.68758662 C-307.59370448 103.72490802 -294.09885126 103.73510978 -280.60382438 103.72430074 C-272.28524061 103.71882725 -263.96735552 103.73697023 -255.64890853 103.78555237 C-249.95302983 103.8171416 -244.25747355 103.82378854 -238.56152329 103.81077386 C-235.27526226 103.80412136 -231.99028344 103.81284296 -228.7041378 103.84452248 C-225.14135521 103.8772005 -221.58118321 103.86702664 -218.01837158 103.84609985 C-216.98044094 103.86600939 -215.9425103 103.88591893 -214.87312722 103.90643179 C-209.5856351 103.89101832 -209.5856351 103.89101832 -205.07441092 101.45153499 C-203.57801887 99.70022467 -202.30507927 97.89432885 -201 96 C-191.92004493 88.91177701 -181.42430106 85.81563953 -170 87 C-167.90466579 87.6531265 -165.81310127 88.31844132 -163.7250061 88.99435425 C-159.00602592 90.13109367 -159.00602592 90.13109367 -154.46458054 88.90533829 C-151.9770493 86.92088304 -149.86902171 84.80555636 -147.71240234 82.46533203 C-146.4632177 81.21001427 -146.4632177 81.21001427 -145.188797 79.92933655 C-142.9210076 77.63547685 -140.69254724 75.31035415 -138.47629499 72.96687174 C-136.13757679 70.51259044 -133.75116485 68.10562023 -131.36904907 65.693573 C-126.85980315 61.11403691 -122.39116556 56.49703777 -117.93742716 51.86356437 C-111.42508038 45.09112158 -104.86251674 38.3676205 -98.28884315 31.65473747 C-97.80371738 31.15933405 -97.3185916 30.66393063 -96.81876504 30.15351498 C-95.85002535 29.16437212 -94.8811469 28.17536513 -93.91212618 27.18649757 C-90.64898944 23.85316955 -87.40995233 20.49754149 -84.17733765 17.134552 C-82.46139574 15.3656783 -80.74523086 13.59702087 -79.02880859 11.82861328 C-78.27526596 11.03555283 -77.52172333 10.24249237 -76.74534607 9.42539978 C-69.69894666 2.20850215 -61.6429413 -3.4333504 -52.125 -6.875 C-51.07570313 -7.26429688 -50.02640625 -7.65359375 -48.9453125 -8.0546875 C-31.85098857 -13.54119465 -14.94891809 -8.95549322 0 0 Z " fill="#1E1E1E" transform="translate(1123,298)"/>
<path d="M0 0 C1.18415785 0.00056958 1.18415785 0.00056958 2.39223808 0.00115067 C3.29991198 -0.00084038 4.20758588 -0.00283143 5.14276505 -0.00488281 C6.65586562 -0.00051355 6.65586562 -0.00051355 8.19953388 0.00394398 C9.26211192 0.00308955 10.32468996 0.00223513 11.41946733 0.00135481 C15.00945719 -0.00030315 18.59940117 0.00522653 22.18938679 0.01067311 C24.75107806 0.01095494 27.31276941 0.01079733 29.87446064 0.0102306 C35.40476108 0.01000227 40.93504653 0.01285381 46.46534389 0.01846844 C54.46131194 0.02658108 62.45727427 0.02919842 70.45324599 0.03045643 C83.42486646 0.03264732 96.39648066 0.03930841 109.36809772 0.04875904 C121.97193855 0.0579322 134.57577767 0.0650135 147.17962116 0.06926686 C147.95597729 0.06952958 148.73233341 0.0697923 149.53221548 0.07006299 C153.42680336 0.07136799 157.32139126 0.0726317 161.21597916 0.07387489 C193.54688196 0.08424866 225.87777706 0.10186798 258.20867389 0.1241985 C258.33464954 0.94590031 258.46062519 1.76760212 258.59041828 2.61420399 C258.76173267 3.6933054 258.93304706 4.77240681 259.1095528 5.88420826 C259.27677845 6.95341007 259.44400409 8.02261189 259.61629719 9.12421376 C260.38167975 13.00035536 261.61003601 15.64446084 263.58367389 19.0616985 C264.16890827 20.10197193 264.75414264 21.14224537 265.35711139 22.21404225 C267.14524109 25.02449926 269.1098514 27.54214102 271.20867389 30.1241985 C270.30512165 31.02251393 269.4015694 31.92082936 268.47063679 32.84636647 C265.12664466 36.17229118 261.78593639 39.50149758 258.44622272 42.83171803 C256.99887855 44.27402599 255.55063914 45.71543615 254.10149616 47.15593678 C252.02159211 49.22374422 249.94490353 51.2947335 247.86883014 53.366386 C247.21777805 54.0122768 246.56672596 54.65816761 245.89594501 55.32363087 C245.29539798 55.92410237 244.69485096 56.52457386 244.07610554 57.14324147 C243.54537937 57.67174702 243.0146532 58.20025257 242.46784443 58.74477345 C240.22902038 61.19741183 240.00053231 63.14458004 239.89617389 66.3741985 C239.85879108 67.12185475 239.82140827 67.869511 239.78289264 68.6398235 C241.03372407 75.93825272 248.22466744 81.42978778 253.20867389 86.3898235 C254.51771686 87.70173664 254.51771686 87.70173664 255.85320514 89.04015309 C257.69319496 90.88150019 259.53569808 92.72033885 261.38054889 94.55681568 C263.26965889 96.43875019 265.155861 98.32302228 267.03679889 100.21306568 C269.75543021 102.94403716 272.48087826 105.66800877 275.20867389 108.3898235 C276.05043171 109.23562977 276.89218952 110.08143605 277.75945514 110.95287281 C278.54707233 111.73418568 279.33468952 112.51549855 280.14617389 113.32048756 C280.83582233 114.00854481 281.52547077 114.69660206 282.23601764 115.40550953 C285.29999796 118.07502134 287.47455272 119.04109044 291.52117389 119.4991985 C298.99109145 118.73954586 303.78155725 113.98438681 308.79851764 108.8273235 C309.38790622 108.23369007 309.97729481 107.64005665 310.58454365 107.02843434 C312.44565111 105.15067768 314.29598954 103.2627124 316.14617389 101.3741985 C317.41435382 100.09095397 318.68322767 98.80839484 319.95281452 97.52654225 C323.04617802 94.4002923 326.12993481 91.26484891 329.20867389 88.1241985 C329.81703083 88.53121998 330.42538776 88.93824147 331.05217975 89.35759693 C331.85534626 89.8941692 332.65851276 90.43074147 333.48601764 90.9835735 C334.27999958 91.51434498 335.07398151 92.04511647 335.8920235 92.59197193 C346.69385826 99.73627744 357.12409565 101.8568803 369.95867389 99.3741985 C379.92943482 96.7559771 388.34070657 90.82701871 394.08367389 82.1866985 C394.82497931 80.8502967 395.53475692 79.49581775 396.20867389 78.1241985 C396.52707233 77.50673756 396.84547077 76.88927662 397.17351764 76.25310475 C399.40684723 70.97339011 399.48612224 65.71018661 399.52117389 60.0616985 C399.52951252 58.92788746 399.52951252 58.92788746 399.5380196 57.77117115 C399.4722403 52.60215486 398.62501228 48.09548981 397.20867389 43.1241985 C398.85867389 41.8041985 400.50867389 40.4841985 402.20867389 39.1241985 C411.33488952 44.0137184 419.4122603 49.23487868 427.20867389 56.1241985 C428.13550983 56.918261 429.06234577 57.7123235 430.01726764 58.5304485 C454.59370995 80.07318295 470.8629036 112.46702393 473.20867389 145.1241985 C474.91222578 181.78772704 466.20650092 214.79960949 442.20867389 243.1241985 C441.52248981 243.93799977 441.52248981 243.93799977 440.82244343 244.76824147 C431.29572865 255.91708138 419.64966399 266.86582 406.20867389 273.1241985 C403.20867389 273.1241985 403.20867389 273.1241985 401.66570514 271.62029225 C401.12300983 270.94095631 400.58031452 270.26162037 400.02117389 269.5616985 C392.61238586 260.83101053 384.70157219 255.64835102 374.20867389 251.1241985 C373.56035602 250.84318287 372.91203815 250.56216725 372.24407429 250.272636 C365.43513908 247.6396492 358.75499964 247.5864568 351.52117389 247.6241985 C349.65259723 247.63169117 349.65259723 247.63169117 347.74627155 247.63933522 C338.61242086 247.81275519 331.35897726 248.76043834 323.20867389 253.1241985 C322.31922077 253.57021412 321.42976764 254.01622975 320.51336139 254.475761 C309.69025668 260.40033514 299.48458791 269.8367863 294.20867389 281.1241985 C270.42745872 277.75936117 247.0759886 254.35554305 233.20867389 236.1241985 C225.20867389 225.18127434 225.20867389 225.18127434 225.20867389 222.1241985 C226.12362629 222.10232472 226.12362629 222.10232472 227.05706257 222.08000904 C229.83738454 222.00525074 232.61654213 221.90868367 235.39617389 221.8116985 C236.83573444 221.77786061 236.83573444 221.77786061 238.30437702 221.74333912 C245.28732051 221.55469967 245.28732051 221.55469967 251.20867389 218.1241985 C253.17829407 214.9592724 253.46907105 212.48909107 253.49920124 208.79241139 C253.51196094 207.72773136 253.52472065 206.66305134 253.53786701 205.56610829 C253.54009266 204.42125462 253.5423183 203.27640095 253.54461139 202.09685475 C253.55126819 200.91578648 253.55792499 199.73471821 253.56478351 198.51786 C253.57490699 196.02052578 253.57960063 193.52316454 253.57927936 191.02580982 C253.58365336 187.20463764 253.61998084 183.38461952 253.65789264 179.56365162 C253.66376062 177.13722328 253.66773014 174.71078945 253.66961139 172.28435475 C253.69116794 170.57011059 253.69116794 170.57011059 253.71315998 168.82123524 C253.72263318 162.56945499 253.72263318 162.56945499 251.3048653 156.92668873 C248.15253539 154.21603747 246.4163267 153.99561591 242.33898395 153.97029835 C240.79545498 153.95739765 240.79545498 153.95739765 239.2207436 153.94423634 C238.08721958 153.93997639 236.95369556 153.93571644 235.78582233 153.9313274 C234.00030712 153.91906117 234.00030712 153.91906117 232.17872089 153.90654713 C228.22517723 153.88166039 224.27164103 153.86501786 220.31804889 153.850761 C218.95675376 153.84540107 217.5954587 153.84002356 216.2341637 153.83462864 C210.5706713 153.81299836 204.90718174 153.79426251 199.24365848 153.78300625 C191.12943553 153.76677295 183.0156919 153.73361278 174.90164965 153.6766054 C169.19540561 153.63788327 163.48928964 153.61837083 157.78291768 153.61308569 C154.37540134 153.60943478 150.9683962 153.59744325 147.56102222 153.56498295 C143.75667701 153.533444 139.95354464 153.5332787 136.14910358 153.5407024 C134.46096294 153.5160944 134.46096294 153.5160944 132.73871845 153.49098927 C126.17631589 153.49472561 126.17631589 153.49472561 120.52489704 156.473167 C117.42136634 160.02531078 117.08254072 162.49744305 117.03167194 167.05120045 C117.01883671 168.05266606 117.00600147 169.05413166 116.99277729 170.08594471 C116.98539036 171.16720127 116.97800342 172.24845783 116.97039264 173.36247975 C116.95828502 175.03276486 116.95828502 175.03276486 116.94593281 176.7367931 C116.93209661 179.09467217 116.92137238 181.45257124 116.91350788 183.81047779 C116.89629108 187.41218284 116.8523989 191.01297097 116.80828327 194.61443287 C116.79815657 196.90544175 116.78964039 199.19645843 116.78289264 201.48747975 C116.75663051 203.10025555 116.75663051 203.10025555 116.72983783 204.74561268 C116.74751427 210.85365887 117.05521315 214.51555111 121.20867389 219.1241985 C124.88935782 221.57798778 126.88921108 221.43066063 131.28289264 221.538261 C131.96672519 221.55762715 132.65055774 221.5769933 133.35511249 221.5969463 C135.53534015 221.65663847 137.71562091 221.70308481 139.89617389 221.7491985 C141.37601439 221.78738793 142.85583289 221.82644023 144.33562702 221.866386 C147.95977439 221.96233051 151.58408647 222.04640001 155.20867389 222.1241985 C155.58677204 223.11097584 155.96487018 224.09775318 156.35442585 225.11443287 C168.88426445 257.58765439 188.40124663 287.31715138 215.79070514 309.14372975 C217.72361928 310.72690821 219.49136288 312.31560185 221.20867389 314.1241985 C220.25347858 314.27115162 219.29828327 314.41810475 218.31414264 314.569511 C203.99213964 317.05408579 192.4427357 322.69244702 183.35711139 334.538261 C178.00415216 342.84457706 176.18755889 351.21755442 175.63445514 360.98747975 C175.5921175 361.67668507 175.54977985 362.36589039 175.50615925 363.07598072 C175.40332649 364.75849964 175.30548301 366.44132225 175.20867389 368.1241985 C174.62064991 368.12784413 174.03262592 368.13148976 173.42678303 368.13524586 C167.29427358 368.17712822 161.16250857 368.24651397 155.03045124 368.33171803 C152.74341768 368.35990501 150.45628712 368.3811308 148.16912311 368.39519459 C144.87711484 368.41665488 141.58627011 368.46332321 138.29461139 368.5148235 C136.76615085 368.51666645 136.76615085 368.51666645 135.20681232 368.51854664 C129.422422 368.63729224 125.67838934 369.05918927 121.20867389 373.1241985 C114.48557937 386.57038755 118.57523065 403.09537166 118.20867389 418.1241985 C78.27867389 418.1241985 38.34867389 418.1241985 -2.79132611 418.1241985 C-2.81335109 365.01788436 -2.8318231 311.91157451 -2.84239144 258.80525712 C-2.84364222 252.54267442 -2.84493653 246.28009173 -2.84625775 240.01750904 C-2.84652006 238.77068499 -2.84678237 237.52386094 -2.84705263 236.23925435 C-2.85140986 216.02233345 -2.85929769 195.80541538 -2.8684789 175.58849616 C-2.87781397 154.86067405 -2.8833814 134.13285342 -2.8854146 113.4050293 C-2.88679013 100.60378809 -2.89114236 87.80255487 -2.89924257 75.00131612 C-2.90450822 66.23584216 -2.90613082 57.47037236 -2.90482748 48.70489693 C-2.90418382 43.63957605 -2.90520481 38.57426919 -2.91053158 33.50895077 C-2.91536448 28.87974967 -2.91566548 24.25057215 -2.912225 19.62137001 C-2.9117992 17.93899409 -2.91309585 16.25661676 -2.91620929 14.57424367 C-2.92017154 12.30269613 -2.9180906 10.03123581 -2.91437393 7.75968987 C-2.91475365 6.49332257 -2.91513337 5.22695526 -2.9155246 3.9222132 C-2.74988807 0.19065873 -2.74988807 0.19065873 0 0 Z " fill="#FEFEFE" transform="translate(649.7913261055946,426.8758015036583)"/>
<path d="M0 0 C30.81234653 -0.02278988 61.62469114 -0.04049792 92.43704408 -0.05106533 C96.07090375 -0.05231611 99.7047634 -0.05361042 103.33862305 -0.05493164 C104.06208951 -0.05519395 104.78555598 -0.05545626 105.53094567 -0.05572652 C117.26055168 -0.06008332 128.99015282 -0.06797092 140.71975594 -0.0771528 C152.74648244 -0.08648906 164.77320638 -0.09205555 176.79993635 -0.09408849 C183.55891439 -0.09534006 190.31788223 -0.09836183 197.07685661 -0.10573006 C203.43048956 -0.11248603 209.7841068 -0.11461783 216.137743 -0.11310768 C218.47714447 -0.1133842 220.81654644 -0.11539182 223.15594482 -0.11920547 C226.3348128 -0.12413612 229.51362043 -0.12300063 232.69248962 -0.12025452 C233.63118627 -0.12316736 234.56988292 -0.1260802 235.53702492 -0.12908131 C241.88587879 -0.11412121 241.88587879 -0.11412121 243 1 C243.09809919 3.21003458 243.12371116 5.42328075 243.12304783 7.63549137 C243.12420167 8.34069704 243.12535552 9.04590271 243.12654433 9.77247825 C243.12921776 12.16540419 243.12468291 14.55826453 243.12025452 16.95118713 C243.12069007 18.6720921 243.12156468 20.39299701 243.12284368 22.11390156 C243.12509176 26.86610687 243.12106312 31.61828987 243.11606562 36.37049234 C243.11176576 41.48640531 243.11320721 46.60231693 243.1139679 51.7182312 C243.11449343 60.58963382 243.11134359 69.46102911 243.10573006 78.33242989 C243.09761899 91.15914478 243.09500024 103.98585612 243.09374207 116.81257331 C243.09155093 137.62073773 243.08488916 158.42889825 243.07543945 179.23706055 C243.06626694 199.45581035 243.05918532 219.67455909 243.05493164 239.89331055 C243.05466892 241.13862498 243.05440619 242.38393941 243.05413551 243.66699065 C243.05283052 249.91407772 243.0515668 256.1611648 243.05032361 262.40825188 C243.03994906 314.27217139 243.02150972 366.13608368 243 418 C203.73 418 164.46 418 124 418 C123.67 404.47 123.34 390.94 123 377 C119.78622283 371.40901364 119.78622283 371.40901364 115 369 C112.66019459 368.67647188 112.66019459 368.67647188 110.13964844 368.68115234 C109.17895447 368.66128265 108.2182605 368.64141296 107.22845459 368.62094116 C106.19915833 368.60938995 105.16986206 368.59783875 104.109375 368.5859375 C103.04962463 368.56657135 101.98987427 368.5472052 100.89801025 368.5272522 C97.51542187 368.46750446 94.13279937 368.4210898 90.75 368.375 C88.45571438 368.33681584 86.16144303 368.29776385 83.8671875 368.2578125 C78.24491838 368.16180685 72.62256323 368.07674517 67 368 C66.94231445 366.9795459 66.88462891 365.9590918 66.82519531 364.90771484 C66.7430785 363.55044119 66.66070829 362.19318285 66.578125 360.8359375 C66.54090332 360.16554443 66.50368164 359.49515137 66.46533203 358.80444336 C65.67504552 346.12111966 60.47378323 335.69921641 51.86328125 326.4375 C40.09583487 316.41991945 27.51804739 314.93520234 12.5625 314.4375 C11.35400391 314.39431641 10.14550781 314.35113281 8.90039062 314.30664062 C5.93369394 314.20110596 2.96692098 314.09899286 0 314 C4.0248248 309.9176777 8.21404925 306.08503129 12.5 302.28125 C15.08066234 299.92639562 17.53959268 297.4797806 20 295 C21.15048828 293.90171875 21.15048828 293.90171875 22.32421875 292.78125 C33.01824154 282.45842469 41.3038256 270.64056826 49 258 C49.3697998 257.40413086 49.73959961 256.80826172 50.12060547 256.19433594 C66.01654552 230.38843239 76.0281792 198.48616387 76.203125 168.07421875 C76.21018463 167.25298019 76.21724426 166.43174164 76.22451782 165.58561707 C76.57638412 141.11820673 76.57638412 141.11820673 73 117 C72.80132324 116.13922852 72.60264648 115.27845703 72.39794922 114.39160156 C65.85417909 86.6969939 54.02395944 60.82545778 37 38 C36.33226562 37.08863281 35.66453125 36.17726563 34.9765625 35.23828125 C29.97444597 28.78298067 24.2419915 23.04341727 18.5 17.25 C17.30697266 16.04283325 17.30697266 16.04283325 16.08984375 14.8112793 C11.51340084 10.2598108 6.82526326 6.14414362 1.63476562 2.30371094 C1.09529297 1.87348633 0.55582031 1.44326172 0 1 C0 0.67 0 0.34 0 0 Z " fill="#FEFEFE" transform="translate(1110,427)"/>
<path d="M0 0 C14.52 0 29.04 0 44 0 C44 16.83 44 33.66 44 51 C60.5 51 77 51 94 51 C94 34.17 94 17.34 94 0 C108.52 0 123.04 0 138 0 C138 45.87 138 91.74 138 139 C123.48 139 108.96 139 94 139 C94 121.51 94 104.02 94 86 C77.5 86 61 86 44 86 C44 103.49 44 120.98 44 139 C29.48 139 14.96 139 0 139 C0 93.13 0 47.26 0 0 Z " fill="#000000" transform="translate(464,1180)"/>
<path d="M0 0 C0.93147858 0.00359528 1.86295715 0.00719055 2.82266235 0.01089478 C3.79816544 0.01074875 4.77366852 0.01060272 5.7787323 0.01045227 C9.01987899 0.01115184 12.260969 0.01894626 15.50210571 0.02676392 C17.74270089 0.02862794 19.98329648 0.03005192 22.22389221 0.03105164 C28.13404456 0.03487804 34.04417251 0.04470936 39.95431519 0.05575562 C45.98000763 0.06596711 52.005704 0.07054869 58.03140259 0.07559204 C69.86409563 0.08633152 81.69677052 0.10340941 93.52944946 0.12442017 C96.89948716 7.3339541 99.95979916 14.5952279 102.75210571 22.04629517 C103.13480621 23.05790207 103.51750671 24.06950897 103.9118042 25.11177063 C105.1418325 28.3647469 106.36697618 31.61953737 107.59194946 34.87442017 C109.28549312 39.3607666 110.98142631 43.8462073 112.67788696 48.33145142 C113.30230934 49.9836544 113.30230934 49.9836544 113.93934631 51.66923523 C116.40788906 58.19208665 118.90409657 64.70305601 121.44351196 71.19863892 C121.73042404 71.93335419 122.01733612 72.66806946 122.3129425 73.42504883 C123.61065259 76.74462644 124.91462931 80.06157315 126.22695923 83.37539673 C126.67096069 84.5081604 127.11496216 85.64092407 127.57241821 86.80801392 C128.14512451 88.25518799 128.14512451 88.25518799 128.72940063 89.7315979 C129.52944946 92.12442017 129.52944946 92.12442017 129.52944946 95.12442017 C72.76944946 95.12442017 16.00944946 95.12442017 -42.47055054 95.12442017 C-41.34559321 88.37467623 -41.34559321 88.37467623 -40.06625366 85.10244751 C-39.78024292 84.3624501 -39.49423218 83.6224527 -39.19955444 82.86003113 C-38.88679565 82.06813889 -38.57403687 81.27624664 -38.25180054 80.46035767 C-37.75655884 79.18568886 -37.75655884 79.18568886 -37.25131226 77.88526917 C-36.16309508 75.08785984 -35.06688151 72.29365845 -33.97055054 69.49942017 C-33.21151439 67.55327296 -32.45305919 65.60689907 -31.69515991 63.66030884 C-30.51159836 60.62104139 -29.32746313 57.58200688 -28.14108276 54.5438385 C-25.27083677 47.19226877 -22.42637621 39.8310954 -19.59555054 32.46426392 C-18.81236102 30.42796311 -18.02915811 28.39166745 -17.24594116 26.3553772 C-16.11032165 23.40248808 -14.97532482 20.44936806 -13.84237671 17.49545288 C-12.79380301 14.76275162 -11.74193552 12.03134033 -10.68930054 9.30020142 C-10.37654175 8.48252792 -10.06378296 7.66485443 -9.74154663 6.82240295 C-7.22477232 0.30719207 -7.05281978 0.01150377 0 0 Z " fill="#FEFEFE" transform="translate(956.4705505371094,966.8755798339844)"/>
<path d="M0 0 C8.84751339 7.92965911 15.28111991 20.36217544 16.671875 32.18359375 C16.671875 36.14359375 16.671875 40.10359375 16.671875 44.18359375 C2.481875 44.18359375 -11.708125 44.18359375 -26.328125 44.18359375 C-26.658125 40.88359375 -26.988125 37.58359375 -27.328125 34.18359375 C-29.58837283 27.56162799 -33.40060642 23.69619735 -39.328125 20.18359375 C-42.91026139 18.98954829 -45.86433758 19.01476975 -49.640625 18.99609375 C-50.93613281 18.98191406 -52.23164062 18.96773437 -53.56640625 18.953125 C-59.74335419 19.33156729 -64.60745669 21.1660037 -69.328125 25.18359375 C-74.81184591 34.16097557 -75.51453269 41.71207334 -75.51342773 52.01464844 C-75.51559713 54.27949297 -75.53371318 56.54383647 -75.55273438 58.80859375 C-75.59572252 69.51937611 -75.51630409 79.5690397 -68.328125 88.18359375 C-61.89476769 93.88171023 -56.39743521 94.53862094 -48.05078125 94.4609375 C-41.51551938 93.9740502 -34.91523085 92.41543571 -30.328125 87.43359375 C-26.54997026 81.2940923 -25.36024915 76.40846279 -24.328125 69.18359375 C-10.798125 69.18359375 2.731875 69.18359375 16.671875 69.18359375 C16.671875 85.42538433 13.54053285 98.78984892 2.671875 111.18359375 C-14.64216396 127.71772104 -37.25738585 128.77643643 -59.82763672 128.30664062 C-76.42157137 127.72334149 -92.69121185 122.53241217 -104.328125 110.18359375 C-104.92753906 109.59191406 -105.52695313 109.00023437 -106.14453125 108.390625 C-121.72843702 92.06623126 -122.95801415 69.35730204 -122.6328125 48.06640625 C-122.0501034 30.3684234 -116.21148236 14.21116565 -103.734375 1.328125 C-76.28779166 -23.13319684 -28.4092591 -22.16494208 0 0 Z " fill="#020202" transform="translate(1165.328125,1192.81640625)"/>
<path d="M0 0 C1.07314453 -0.01224609 2.14628906 -0.02449219 3.25195312 -0.03710938 C19.70472792 -0.06696922 35.41215327 3.8108579 47.8125 15.1875 C60.33227039 29.45666591 62.68328114 44.73435066 61.8125 63.1875 C60.60702867 77.3815004 55.28561305 89.53583777 44.63671875 99.15234375 C32.21380771 108.69397458 17.57163775 111.37378753 2.3125 111.4375 C0.50652344 111.4684375 0.50652344 111.4684375 -1.3359375 111.5 C-18.12308851 111.5722028 -32.7425032 107.34933291 -45.00390625 95.51953125 C-57.14806495 82.54983046 -58.90686855 68.05125588 -58.55859375 50.984375 C-57.86452851 36.29682029 -53.69918071 23.22167805 -42.5625 13.08203125 C-29.79467676 2.89717225 -15.98911637 0.00943311 0 0 Z " fill="#010101" transform="translate(1257.1875,1209.8125)"/>
<path d="M0 0 C1.57007813 0.65355469 1.57007813 0.65355469 3.171875 1.3203125 C16.48842733 7.38232513 25.23287178 17.00260343 30.4375 30.6875 C34.69416901 46.02618659 34.16437953 67.25613801 26.3125 81.3125 C25.24700591 82.90162322 24.14212413 84.46502679 23 86 C22.42378906 86.78117187 21.84757813 87.56234375 21.25390625 88.3671875 C12.52833341 99.14263504 -0.54933189 104.68519467 -14 107 C-44.1747442 108.77584946 -44.1747442 108.77584946 -57 103 C-57.97324219 102.56429688 -58.94648437 102.12859375 -59.94921875 101.6796875 C-73.72896449 94.79921418 -81.22087549 84.87538941 -86.23828125 70.54296875 C-90.07132887 57.74648669 -89.82088482 40.43280822 -85 28 C-84.67128906 27.14792969 -84.34257813 26.29585937 -84.00390625 25.41796875 C-78.01075552 11.91782646 -67.52454164 4.48021551 -54.1875 -0.8125 C-38.27226836 -6.80252019 -15.6523035 -6.8853029 0 0 Z " fill="#010101" transform="translate(994,1214)"/>
<path d="M0 0 C137.28 0 274.56 0 416 0 C416 8.25 416 16.5 416 25 C278.72 25 141.44 25 0 25 C0 16.75 0 8.5 0 0 Z " fill="#FEFEFE" transform="translate(793,820)"/>
<path d="M0 0 C9.56717869 6.87111384 15.31381133 15.69208266 17.9375 27.1875 C19 35 19 35 19 52 C-7.4 52 -33.8 52 -61 52 C-59.00462362 63.78233529 -59.00462362 63.78233529 -51.9375 72.4375 C-45.53799144 75.84149391 -38.34708922 76.17974103 -31.3515625 74.28125 C-26.77282849 72.39499413 -23.52104118 70.41182207 -21 66 C-20.67 64.02 -20.34 62.04 -20 60 C-7.13 60 5.74 60 19 60 C19 71.8010503 16.58311988 79.17485365 8.40625 87.65234375 C-4.44593241 99.56486188 -21.2576325 101.18196028 -37.9375 101.125 C-39.06607422 101.12886719 -40.19464844 101.13273437 -41.35742188 101.13671875 C-58.61873072 101.11663578 -74.898826 97.92384028 -87.9375 85.5625 C-100.74383971 71.54390969 -101.61282697 54.76908369 -101.13623047 36.68505859 C-100.87262614 31.48950238 -99.87577477 26.83752441 -98 22 C-97.67128906 21.14792969 -97.34257813 20.29585937 -97.00390625 19.41796875 C-91.01075552 5.91782646 -80.52454164 -1.51978449 -67.1875 -6.8125 C-46.76069122 -14.50054374 -18.20034832 -12.4422095 0 0 Z " fill="#020202" transform="translate(1525,1220)"/>
<path d="M0 0 C0.87092285 0.01780518 1.7418457 0.03561035 2.63916016 0.05395508 C9.09797839 0.32798396 13.83815252 1.46077484 18.875 5.6875 C19.926875 6.409375 20.97875 7.13125 22.0625 7.875 C29.26303422 15.07553422 31.9741821 22.34905878 32.1875 32.375 C32.02731022 47.70516176 23.00498847 55.72210649 12.73657227 65.93945312 C11.95526443 66.72090698 11.1739566 67.50236084 10.36897278 68.30749512 C7.81214974 70.86362717 5.25181394 73.41620903 2.69140625 75.96875 C0.90757232 77.75071685 -0.87603947 79.53290611 -2.65943909 81.31530762 C-6.85769178 85.51014558 -11.05816307 89.70275314 -15.25974089 93.89425993 C-20.0477812 98.67107532 -24.83294072 103.45077218 -29.61787498 108.23069859 C-39.45040875 118.05281424 -49.28650736 127.87135341 -59.125 137.6875 C-63.04120992 134.3818682 -66.87927687 131.05861894 -70.49975586 127.42626953 C-71.28003647 126.64591339 -72.06031708 125.86555725 -72.86424255 125.06155396 C-73.68119095 124.23944427 -74.49813934 123.41733459 -75.33984375 122.5703125 C-76.19558487 121.71315643 -77.05132599 120.85600037 -77.93299866 119.97286987 C-80.64520465 117.25510046 -83.3538983 114.53386109 -86.0625 111.8125 C-87.90927369 109.96070658 -89.75627653 108.10914166 -91.60351562 106.2578125 C-96.11333201 101.73701565 -100.62027569 97.21337054 -105.125 92.6875 C-103.75672719 89.62768283 -102.2013179 87.50827776 -99.84547424 85.13381958 C-99.16866104 84.44703125 -98.49184784 83.76024292 -97.79452515 83.05264282 C-97.05223663 82.30968964 -96.30994812 81.56673645 -95.54516602 80.80126953 C-94.37154259 79.61516083 -94.37154259 79.61516083 -93.17420959 78.40509033 C-90.58124727 75.7880005 -87.98065892 73.17866197 -85.37890625 70.5703125 C-83.56958006 68.75201889 -81.76033128 66.93364824 -79.95115662 65.11520386 C-76.15256548 61.30011043 -72.34960955 57.48943208 -68.54418945 53.68115234 C-64.16419223 49.29753086 -59.79746688 44.90099008 -55.43669373 40.49825203 C-51.22533323 36.24781014 -47.00008387 32.01145002 -42.76969719 27.77993393 C-40.97995303 25.9859986 -39.19430772 24.18796381 -37.41296577 22.38568497 C-34.91021374 19.85588286 -32.39191054 17.34258505 -29.86938477 14.83251953 C-29.14531433 14.09361481 -28.4212439 13.35471008 -27.67523193 12.59341431 C-19.72106746 4.74984872 -11.37711435 -0.43177536 0 0 Z " fill="#FDFDFD" transform="translate(1090.125,313.3125)"/>
<path d="M0 0 C1.06798828 -0.01224609 2.13597656 -0.02449219 3.23632812 -0.03710938 C17.42726175 -0.06311597 33.02032346 2.95750637 43.5625 13.1875 C49.52779134 19.72663368 51.5625 25.20884333 51.5625 34.1875 C39.0225 34.1875 26.4825 34.1875 13.5625 34.1875 C12.5725 31.2175 12.5725 31.2175 11.5625 28.1875 C7.61305228 24.7399158 3.52362405 24.72961711 -1.5 24.8125 C-2.56057617 24.79509766 -2.56057617 24.79509766 -3.64257812 24.77734375 C-6.83047624 24.79530374 -9.09698292 24.99975835 -11.91015625 26.55078125 C-13.67795757 28.13389322 -13.67795757 28.13389322 -13.8125 30.75 C-13.65646136 33.36278109 -13.65646136 33.36278109 -11.4375 35.1875 C-4.90014917 37.70999295 2.1076902 38.65073593 9 39.6875 C39.57766272 44.29893888 39.57766272 44.29893888 49.5625 56.1875 C53.44801142 62.04183874 54.18909657 67.19911251 54.0625 74.125 C54.08570313 75.38860352 54.08570313 75.38860352 54.109375 76.67773438 C54.05458872 85.57365699 50.80226114 92.88531609 44.70703125 99.33984375 C28.85649885 112.99613123 4.5915987 112.43137315 -14.97436523 111.00219727 C-27.5815321 109.76873007 -41.21640156 104.42779251 -49.73828125 94.703125 C-54.69676391 88.32584346 -56.4375 82.22253445 -56.4375 74.1875 C-43.8975 74.1875 -31.3575 74.1875 -18.4375 74.1875 C-17.7775 76.4975 -17.1175 78.8075 -16.4375 81.1875 C-11.37058524 86.12449387 -6.91479488 86.36923127 -0.125 86.375 C0.99551758 86.39336914 0.99551758 86.39336914 2.13867188 86.41210938 C6.67772437 86.42406474 10.28749142 85.90701855 14.5625 84.1875 C14.97975678 80.81349422 14.97975678 80.81349422 14.5625 77.1875 C8.63946591 72.13550034 0.11100208 71.54354799 -7.3125 70.375 C-22.72808832 67.79719952 -39.02438194 65.0661734 -49.21875 52.01171875 C-54.11629203 44.68110295 -54.42065379 36.82988998 -53.4375 28.1875 C-51.40546663 20.50189823 -48.0883384 13.76580601 -41.4375 9.1875 C-27.8329562 1.7840172 -15.23888241 0.00916349 0 0 Z " fill="#020202" transform="translate(747.4375,1209.8125)"/>
<path d="M0 0 C9.9 0 19.8 0 30 0 C30 10.56 30 21.12 30 32 C37.59 32 45.18 32 53 32 C53 40.91 53 49.82 53 59 C45.41 59 37.82 59 30 59 C30.09704886 65.58399874 30.19985308 72.16738489 30.31738281 78.75097656 C30.35560988 80.98952791 30.39047361 83.22813937 30.421875 85.46679688 C30.46766148 88.68902026 30.52563414 91.91083207 30.5859375 95.1328125 C30.59748871 96.12991241 30.60903992 97.12701233 30.62094116 98.15432739 C30.76481594 105.28048873 30.76481594 105.28048873 33 112 C35.59257669 112.86419223 37.34037707 113.17580932 40.01171875 113.31640625 C40.69451904 113.35451416 41.37731934 113.39262207 42.08081055 113.43188477 C42.94101807 113.47498779 43.80122559 113.51809082 44.6875 113.5625 C47.430625 113.706875 50.17375 113.85125 53 114 C53 121.92 53 129.84 53 138 C43.68539059 140.66131697 35.30753741 141.22604071 25.6875 141.3125 C24.62337891 141.34150391 23.55925781 141.37050781 22.46289062 141.40039062 C12.09261128 141.48264421 3.70333667 139.05144273 -4.24609375 132.26953125 C-10.41207353 124.29083581 -10.54504364 116.3548745 -10.390625 106.55859375 C-10.38314917 105.18141 -10.37746259 103.80421548 -10.37347412 102.42701721 C-10.35832291 98.83142869 -10.31913527 95.23650368 -10.2746582 91.64117432 C-10.23347571 87.96074393 -10.21541448 84.28020458 -10.1953125 80.59960938 C-10.15262767 73.39940446 -10.08236762 66.19988035 -10 59 C-14.95 59 -19.9 59 -25 59 C-25 50.09 -25 41.18 -25 32 C-19.39 32 -13.78 32 -8 32 C-7.67 29.36 -7.34 26.72 -7 24 C-6.67217207 22.57072943 -6.30803032 21.14828419 -5.87890625 19.74609375 C-5.66556641 19.03646484 -5.45222656 18.32683594 -5.23242188 17.59570312 C-5.01134766 16.88349609 -4.79027344 16.17128906 -4.5625 15.4375 C-4.12608743 13.99876301 -3.68988714 12.55996161 -3.25390625 11.12109375 C-2.96495483 10.18414673 -2.96495483 10.18414673 -2.67016602 9.22827148 C-1.7478739 6.1616922 -0.87973114 3.079059 0 0 Z " fill="#000000" transform="translate(839,1180)"/>
<path d="M0 0 C0.75539063 -0.01224609 1.51078125 -0.02449219 2.2890625 -0.03710938 C3.02640625 -0.03904297 3.76375 -0.04097656 4.5234375 -0.04296875 C5.19036621 -0.04707764 5.85729492 -0.05118652 6.54443359 -0.05541992 C8.625 0.1875 8.625 0.1875 13.625 2.1875 C13.625 13.4075 13.625 24.6275 13.625 36.1875 C3.125 36.4375 3.125 36.4375 -0.13476562 36.48535156 C-7.2222322 36.73380519 -13.20664765 37.80388804 -18.21484375 43.15234375 C-18.57707031 43.80332031 -18.93929688 44.45429687 -19.3125 45.125 C-19.88291016 46.09759766 -19.88291016 46.09759766 -20.46484375 47.08984375 C-22.25661097 51.21936735 -22.50858212 55.34581769 -22.58032227 59.80395508 C-22.60026749 60.90471878 -22.62021271 62.00548248 -22.64076233 63.13960266 C-22.66583107 64.90547981 -22.66583107 64.90547981 -22.69140625 66.70703125 C-22.71218735 67.92073898 -22.73296844 69.13444672 -22.75437927 70.38493347 C-22.81968916 74.25656551 -22.87867363 78.12826455 -22.9375 82 C-22.98070285 84.62696002 -23.02431771 87.25391329 -23.06835938 89.88085938 C-23.17612569 96.3163386 -23.27533785 102.75186974 -23.375 109.1875 C-36.575 109.1875 -49.775 109.1875 -63.375 109.1875 C-63.375 73.8775 -63.375 38.5675 -63.375 2.1875 C-52.485 2.1875 -41.595 2.1875 -30.375 2.1875 C-29.715 5.8175 -29.055 9.4475 -28.375 13.1875 C-27.88 14.1775 -27.88 14.1775 -27.375 15.1875 C-26.89933594 14.42566406 -26.89933594 14.42566406 -26.4140625 13.6484375 C-19.89832536 4.03682526 -11.42717815 0.00965133 0 0 Z " fill="#010101" transform="translate(1402.375,1209.8125)"/>
<path d="M0 0 C13.2 0 26.4 0 40 0 C40 35.31 40 70.62 40 107 C26.8 107 13.6 107 0 107 C0 71.69 0 36.38 0 0 Z " fill="#000000" transform="translate(631,1212)"/>
<path d="M0 0 C9.81036702 6.07545572 15.87190986 14.80713584 19.49609375 25.6796875 C19.49609375 29.6396875 19.49609375 33.5996875 19.49609375 37.6796875 C-6.90390625 37.6796875 -33.30390625 37.6796875 -60.50390625 37.6796875 C-60.50390625 24.14457157 -58.13149997 15.88159416 -48.84375 5.89453125 C-34.97652998 -6.92363193 -16.46405343 -8.68151335 0 0 Z " fill="#FBFBFB" transform="translate(1021.50390625,703.3203125)"/>
<path d="M0 0 C5.86868679 3.47330443 8.43011868 6.83793162 10.44726562 13.19091797 C11.5480149 17.88133295 11.49421785 22.51669033 11.4375 27.3125 C11.44910156 28.29347656 11.46070313 29.27445313 11.47265625 30.28515625 C11.44241945 37.85443555 10.57316186 44.60443207 5.8125 50.6875 C-1.04905319 55.98960928 -7.38726255 56.85804534 -15.9375 55.8125 C-20.80767876 54.19490491 -24.22408213 51.1338692 -26.9375 46.8125 C-29.49294528 40.13328561 -29.30484817 33.456772 -29.3125 26.375 C-29.33699219 25.18583984 -29.36148437 23.99667969 -29.38671875 22.77148438 C-29.41214451 15.13951786 -28.9852784 9.03818075 -23.4543457 3.26416016 C-17.17913306 -2.25538845 -7.78059161 -3.04009871 0 0 Z " fill="#FBFBFB" transform="translate(1267.9375,1238.1875)"/>
<path d="M0 0 C4.01334937 2.69940203 7.16534432 6.7589851 8.31176758 11.47412109 C9.09551394 16.27007754 8.98036485 21.08015927 9.00390625 25.9296875 C9.02453125 26.97640625 9.04515625 28.023125 9.06640625 29.1015625 C9.1054469 36.90969205 8.04436074 43.2774317 4.06640625 50.0546875 C-1.51017061 55.17910948 -8.03774595 55.81766612 -15.34375 55.578125 C-20.02298616 54.93575341 -22.87967385 53.44584644 -26.24609375 50.1796875 C-31.48291288 42.73556937 -32.01923852 35.55849721 -31.87109375 26.6796875 C-31.89042969 25.52082031 -31.90976562 24.36195312 -31.9296875 23.16796875 C-31.88649005 15.52202064 -30.70097524 9.5122843 -26.24609375 3.1796875 C-19.28387802 -3.57517488 -8.69006255 -3.80983953 0 0 Z " fill="#FCFCFC" transform="translate(977.24609375,1238.8203125)"/>
<path d="M0 0 C29.04 0 58.08 0 88 0 C88 6.27 88 12.54 88 19 C58.96 19 29.92 19 0 19 C0 12.73 0 6.46 0 0 Z " fill="#FEFEFE" transform="translate(791,605)"/>
<path d="M0 0 C13.2 0 26.4 0 40 0 C40 8.91 40 17.82 40 27 C26.8 27 13.6 27 0 27 C0 18.09 0 9.18 0 0 Z " fill="#010101" transform="translate(631,1172)"/>
<path d="M0 0 C0.93457031 0.0515625 1.86914062 0.103125 2.83203125 0.15625 C3.80011719 0.22070312 4.76820312 0.28515625 5.765625 0.3515625 C6.74917969 0.40828125 7.73273438 0.465 8.74609375 0.5234375 C11.170036 0.66463802 13.59289959 0.81602045 16.015625 0.9765625 C16.015625 1.9665625 16.015625 2.9565625 16.015625 3.9765625 C14.695625 4.3065625 13.375625 4.6365625 12.015625 4.9765625 C12.06203125 5.71261719 12.1084375 6.44867187 12.15625 7.20703125 C12.45361753 15.24657494 12.45361753 15.24657494 10.140625 19.1015625 C6.3778539 22.42165465 3.18215034 22.26605859 -1.671875 22.59765625 C-4.17341133 22.77662148 -4.17341133 22.77662148 -5.984375 24.9765625 C-5.6658573 27.08477047 -5.6658573 27.08477047 -4.984375 28.9765625 C-3.44716797 29.03263672 -3.44716797 29.03263672 -1.87890625 29.08984375 C-0.51819438 29.15553329 0.84248111 29.22197959 2.203125 29.2890625 C2.87666016 29.31162109 3.55019531 29.33417969 4.24414062 29.35742188 C8.61513845 29.59196322 11.52119613 30.31132014 15.015625 32.9765625 C16.54777388 36.04086026 16.24501048 38.5931267 16.015625 41.9765625 C14.63205001 45.3586347 13.51324943 46.66861554 10.40234375 48.59375 C6.49068759 50.19089681 3.10673264 50.42137103 -1.046875 50.3515625 C-2.08811523 50.36896484 -2.08811523 50.36896484 -3.15039062 50.38671875 C-7.60451755 50.36133911 -10.4637586 49.72845715 -13.984375 46.9765625 C-16.32987174 43.45831739 -16.56428903 42.11880556 -15.984375 37.9765625 C-13.609375 35.1015625 -13.609375 35.1015625 -10.984375 32.9765625 C-10.324375 32.9765625 -9.664375 32.9765625 -8.984375 32.9765625 C-9.644375 31.9865625 -10.304375 30.9965625 -10.984375 29.9765625 C-10.609375 26.2890625 -10.609375 26.2890625 -9.984375 22.9765625 C-9.324375 22.9765625 -8.664375 22.9765625 -7.984375 22.9765625 C-8.62375 22.2134375 -9.263125 21.4503125 -9.921875 20.6640625 C-12.85024411 16.84830882 -13.33110715 13.76188991 -13.26953125 8.9765625 C-12.81267181 5.77228804 -11.28815528 4.15235499 -8.984375 1.9765625 C-5.8439268 0.02908221 -3.66159004 -0.22326769 0 0 Z " fill="#0B0B0B" transform="translate(1409.984375,1401.0234375)"/>
<path d="M0 0 C5.18921171 1.79626559 7.37044391 4.22784266 10 9 C11.952897 15.21021245 12.06967293 22.44199499 9.4375 28.4375 C7.01244847 32.59595104 4.44169871 34.1932073 0 36 C-6.32614362 36.88787981 -7.25775055 35.8281663 -13 32 C-13.33 37.94 -13.66 43.88 -14 50 C-15.65 50 -17.3 50 -19 50 C-19 33.83 -19 17.66 -19 1 C-17.68 1 -16.36 1 -15 1 C-15 2.32 -15 3.64 -15 5 C-14.01 4.175 -13.02 3.35 -12 2.5 C-7.75195254 -0.52083375 -5.14770102 -0.65367632 0 0 Z " fill="#0C0C0C" transform="translate(696,1401)"/>
<path d="M0 0 C5.43290674 2.46018419 8.8401606 6.49470722 11 12 C12.04599645 18.24869186 11.45619565 23.82318158 8.27734375 29.34375 C5.5448844 32.8867554 2.15773003 34.61408999 -2 36 C-7.44611582 36.64071951 -10.79394857 35.65921915 -15.19921875 32.60546875 C-18.98128351 29.23360624 -20.61707885 25.5089313 -21.375 20.54296875 C-21.66840705 14.57396912 -20.5020093 9.87578787 -17 5 C-11.5258858 -0.08310605 -7.31149791 -0.77733953 0 0 Z " fill="#141414" transform="translate(1114,1489)"/>
<path d="M0 0 C5.43290674 2.46018419 8.8401606 6.49470722 11 12 C12.04599645 18.24869186 11.45619565 23.82318158 8.27734375 29.34375 C5.5448844 32.8867554 2.15773003 34.61408999 -2 36 C-7.44611582 36.64071951 -10.79394857 35.65921915 -15.19921875 32.60546875 C-18.98128351 29.23360624 -20.61707885 25.5089313 -21.375 20.54296875 C-21.66840705 14.57396912 -20.5020093 9.87578787 -17 5 C-11.5258858 -0.08310605 -7.31149791 -0.77733953 0 0 Z " fill="#141414" transform="translate(1369,1401)"/>
<path d="M0 0 C4.50262733 2.28103398 8.26751614 5.14736318 10 10 C10.59795514 16.09775188 11.28715433 23.53919609 8.5 29.1875 C4.43924752 33.75584654 0.4632678 35.6542782 -5.5625 36.5 C-11.38303317 35.65337699 -14.77405917 33.58081844 -18.375 28.9375 C-21.47583231 23.33214929 -21.48649807 18.27942874 -21 12 C-19.23483514 6.70450543 -16.35459729 4.24278522 -12 1 C-8.22785617 -0.88607191 -4.0976745 -0.63914165 0 0 Z " fill="#111111" transform="translate(928,1401)"/>
<path d="M0 0 C7.875 6.75 7.875 6.75 11.18359375 10.0859375 C11.88291016 10.78847656 12.58222656 11.49101562 13.30273438 12.21484375 C14.00720703 12.92769531 14.71167969 13.64054687 15.4375 14.375 C16.53481445 15.47908203 16.53481445 15.47908203 17.65429688 16.60546875 C19.43852723 18.40136074 21.22036124 20.19955985 23 22 C21.61403133 25.13405668 20.00928844 27.21834182 17.55859375 29.6015625 C16.89279297 30.25640625 16.22699219 30.91125 15.54101562 31.5859375 C14.84685547 32.25882812 14.15269531 32.93171875 13.4375 33.625 C12.05901463 34.96911869 10.68260599 36.31537153 9.30859375 37.6640625 C8.69814209 38.25654785 8.08769043 38.8490332 7.45874023 39.45947266 C5.90189218 40.95434048 5.90189218 40.95434048 5 43 C-4.82072065 38.78795277 -12.47594641 27.15506699 -19 19 C-12.73 12.73 -6.46 6.46 0 0 Z " fill="#FCFCFC" transform="translate(938,474)"/>
<path d="M0 0 C4.98669007 2.49334503 8.49675474 5.99350949 11 11 C11.65412623 19.28979203 11.51512662 25.82578714 6 32.375 C1.86511051 35.73459771 -2.86785786 35.45117173 -7.9765625 35.4140625 C-11.93230649 34.87231978 -13.87065671 33.52003943 -16.6953125 30.80078125 C-21.1861248 24.60238463 -20.68885719 17.32771834 -20 10 C-16.10486384 1.31085011 -9.03902283 -1.45743202 0 0 Z " fill="#F7F7F7" transform="translate(1295,1401)"/>
<path d="M0 0 C4.98669007 2.49334503 8.49675474 5.99350949 11 11 C11.65412623 19.28979203 11.51512662 25.82578714 6 32.375 C1.86511051 35.73459771 -2.86785786 35.45117173 -7.9765625 35.4140625 C-11.93230649 34.87231978 -13.87065671 33.52003943 -16.6953125 30.80078125 C-21.1861248 24.60238463 -20.68885719 17.32771834 -20 10 C-16.10486384 1.31085011 -9.03902283 -1.45743202 0 0 Z " fill="#F7F7F7" transform="translate(578,1401)"/>
<path d="M0 0 C20.74074074 0 20.74074074 0 26 4 C28.91591172 7.08310849 29.40998119 9.23392741 29.375 13.4375 C29.12108937 20.78137658 29.12108937 20.78137658 26 24 C19.73559895 28.74147648 13.61085905 28.34594814 6 28 C6 33.94 6 39.88 6 46 C4.02 46 2.04 46 0 46 C0 30.82 0 15.64 0 0 Z " fill="#161616" transform="translate(1103,1390)"/>
<path d="M0 0 C2.44892991 1.4314519 3.9942314 2.94280144 6 5 C6.598125 4.360625 7.19625 3.72125 7.8125 3.0625 C10.64593433 0.3909762 12.45284979 0.04129436 16.3125 -0.25 C20.33763189 0.0228903 22.60309707 0.86706095 26 3 C28.42204038 6.63306058 28.23302891 8.31819023 28.1953125 12.63671875 C28.18886719 13.93544922 28.18242188 15.23417969 28.17578125 16.57226562 C28.1590706 17.94401307 28.14214071 19.31575786 28.125 20.6875 C28.11496674 22.07095718 28.10584149 23.45442127 28.09765625 24.83789062 C28.07404967 28.22543452 28.04112037 31.61263072 28 35 C26.35 35 24.7 35 23 35 C22.970271 33.78884521 22.970271 33.78884521 22.93994141 32.55322266 C22.84494101 28.91014125 22.73516088 25.26765314 22.625 21.625 C22.5940625 20.35398437 22.563125 19.08296875 22.53125 17.7734375 C22.47324219 15.95585938 22.47324219 15.95585938 22.4140625 14.1015625 C22.3826416 12.98088379 22.3512207 11.86020508 22.31884766 10.70556641 C22.26588797 7.85289588 22.26588797 7.85289588 20 6 C17.89582032 5.64360439 17.89582032 5.64360439 15.5625 5.6875 C14.78003906 5.67074219 13.99757813 5.65398437 13.19140625 5.63671875 C10.39295939 6.1006324 9.70035294 6.7437739 8 9 C7.4939264 11.8028729 7.4939264 11.8028729 7.48828125 14.98046875 C7.45283203 16.14384766 7.41738281 17.30722656 7.38085938 18.50585938 C7.35830078 19.72080078 7.33574219 20.93574219 7.3125 22.1875 C7.27833984 23.41404297 7.24417969 24.64058594 7.20898438 25.90429688 C7.1264059 28.93610678 7.05728631 31.96762379 7 35 C5.02 35 3.04 35 1 35 C0.98018066 34.19256348 0.96036133 33.38512695 0.93994141 32.55322266 C0.84494101 28.91014125 0.73516088 25.26765314 0.625 21.625 C0.5940625 20.35398437 0.563125 19.08296875 0.53125 17.7734375 C0.49257813 16.56171875 0.45390625 15.35 0.4140625 14.1015625 C0.3826416 12.98088379 0.3512207 11.86020508 0.31884766 10.70556641 C0.26588797 7.85289588 0.26588797 7.85289588 -2 6 C-4.10236429 5.60590469 -4.10236429 5.60590469 -6.4375 5.625 C-7.61119141 5.58246094 -7.61119141 5.58246094 -8.80859375 5.5390625 C-11.11768334 5.81075405 -11.11768334 5.81075405 -12.60498047 7.66259766 C-14.33370589 10.55913549 -14.42599344 12.49894284 -14.51171875 15.859375 C-14.54716797 16.97441406 -14.58261719 18.08945313 -14.61914062 19.23828125 C-14.65297852 20.97658203 -14.65297852 20.97658203 -14.6875 22.75 C-14.72166016 23.92433594 -14.75582031 25.09867188 -14.79101562 26.30859375 C-14.87345173 29.20563389 -14.94261811 32.10237298 -15 35 C-16.98 35 -18.96 35 -21 35 C-21 23.78 -21 12.56 -21 1 C-19.35 1 -17.7 1 -16 1 C-16 2.32 -16 3.64 -16 5 C-15.34 5 -14.68 5 -14 5 C-13.67 4.01 -13.34 3.02 -13 2 C-8.93945411 -0.63314875 -4.68517312 -0.83345912 0 0 Z " fill="#171717" transform="translate(942,1489)"/>
<path d="M0 0 C2.75 1.5 2.75 1.5 5 3 C8.89224525 3.3770189 8.89224525 3.3770189 11.1875 1.5 C15.14345418 -0.60984223 18.60295187 -0.71821113 23 0 C27.11714905 2.36517073 28.56962744 4.56062647 30 9 C30.22705078 11.9543457 30.22705078 11.9543457 30.1953125 15.17578125 C30.18886719 16.33271484 30.18242188 17.48964844 30.17578125 18.68164062 C30.15902344 19.87982422 30.14226563 21.07800781 30.125 22.3125 C30.11597656 23.53001953 30.10695313 24.74753906 30.09765625 26.00195312 C30.07413037 29.00150274 30.04125653 32.00065044 30 35 C28.02 35 26.04 35 24 35 C23.67 25.43 23.34 15.86 23 6 C19.37 6 15.74 6 12 6 C8.87577437 10.16563418 8.61295055 10.97233826 8.48828125 15.859375 C8.45283203 16.97441406 8.41738281 18.08945313 8.38085938 19.23828125 C8.35830078 20.39714844 8.33574219 21.55601563 8.3125 22.75 C8.27833984 23.92433594 8.24417969 25.09867188 8.20898438 26.30859375 C8.12654827 29.20563389 8.05738189 32.10237298 8 35 C6.35 35 4.7 35 3 35 C2.97494385 34.22809326 2.9498877 33.45618652 2.92407227 32.66088867 C2.80815993 29.16958819 2.68541176 25.67856078 2.5625 22.1875 C2.52318359 20.97255859 2.48386719 19.75761719 2.44335938 18.50585938 C2.40146484 17.34248047 2.35957031 16.17910156 2.31640625 14.98046875 C2.27974854 13.90692139 2.24309082 12.83337402 2.20532227 11.72729492 C2.10458153 8.90688447 2.10458153 8.90688447 1 6 C-0.60332791 5.91878076 -2.20784026 5.86070866 -3.8125 5.8125 C-5.15248047 5.76029297 -5.15248047 5.76029297 -6.51953125 5.70703125 C-9.04398426 5.7863515 -9.04398426 5.7863515 -10.76171875 7.38671875 C-13.10412796 10.4385011 -13.17661073 12.65086268 -13.31640625 16.4453125 C-13.35830078 17.52167969 -13.40019531 18.59804687 -13.44335938 19.70703125 C-13.50233398 21.39892578 -13.50233398 21.39892578 -13.5625 23.125 C-13.60568359 24.26066406 -13.64886719 25.39632813 -13.69335938 26.56640625 C-13.7996604 29.37747768 -13.90169405 32.18863945 -14 35 C-15.65 35 -17.3 35 -19 35 C-19 23.78 -19 12.56 -19 1 C-17.68 1 -16.36 1 -15 1 C-14.34 1.99 -13.68 2.98 -13 4 C-12.34 3.34 -11.68 2.68 -11 2 C-7.18837907 -0.54108062 -4.46464286 -0.78947953 0 0 Z " fill="#111111" transform="translate(627,1401)"/>
<path d="M0 0 C2.88746598 3.86544427 3.36088017 6.61809463 3.29296875 11.39453125 C3.28330078 12.59658203 3.27363281 13.79863281 3.26367188 15.03710938 C3.23853516 16.28298828 3.21339844 17.52886719 3.1875 18.8125 C3.16719727 20.71032227 3.16719727 20.71032227 3.14648438 22.64648438 C3.11118318 25.76475643 3.06186819 28.88216042 3 32 C1.35 31.67 -0.3 31.34 -2 31 C-2.33 30.01 -2.66 29.02 -3 28 C-3.9590625 28.9590625 -3.9590625 28.9590625 -4.9375 29.9375 C-8.91199729 32.61420226 -12.24193112 33.21627586 -17 33 C-21.20896901 31.35301213 -23.18268869 29.11286243 -25 25 C-25.5 22 -25.5 22 -25 19 C-21.43124958 14.63819394 -18.35306323 12.30123756 -12.765625 11.5859375 C-11.02539062 11.48152344 -11.02539062 11.48152344 -9.25 11.375 C-8.07953125 11.30023437 -6.9090625 11.22546875 -5.703125 11.1484375 C-4.81109375 11.09945313 -3.9190625 11.05046875 -3 11 C-3.18464366 6.65815798 -3.18464366 6.65815798 -5 3 C-6.76853292 2.90061137 -8.54118275 2.87030777 -10.3125 2.875 C-11.76076172 2.87113281 -11.76076172 2.87113281 -13.23828125 2.8671875 C-15.66143705 2.98371833 -17.68644969 3.30758352 -20 4 C-20.33 2.68 -20.66 1.36 -21 0 C-14.47456743 -4.35028838 -6.55884337 -4.32287404 0 0 Z " fill="#151515" transform="translate(1173,1404)"/>
<path d="M0 0 C2.88746598 3.86544427 3.36088017 6.61809463 3.29296875 11.39453125 C3.28330078 12.59658203 3.27363281 13.79863281 3.26367188 15.03710938 C3.23853516 16.28298828 3.21339844 17.52886719 3.1875 18.8125 C3.16719727 20.71032227 3.16719727 20.71032227 3.14648438 22.64648438 C3.11118318 25.76475643 3.06186819 28.88216042 3 32 C1.35 31.67 -0.3 31.34 -2 31 C-2.33 30.01 -2.66 29.02 -3 28 C-3.9590625 28.9590625 -3.9590625 28.9590625 -4.9375 29.9375 C-8.91199729 32.61420226 -12.24193112 33.21627586 -17 33 C-21.20896901 31.35301213 -23.18268869 29.11286243 -25 25 C-25.5 22 -25.5 22 -25 19 C-21.43124958 14.63819394 -18.35306323 12.30123756 -12.765625 11.5859375 C-11.02539062 11.48152344 -11.02539062 11.48152344 -9.25 11.375 C-8.07953125 11.30023437 -6.9090625 11.22546875 -5.703125 11.1484375 C-4.81109375 11.09945313 -3.9190625 11.05046875 -3 11 C-3.18464366 6.65815798 -3.18464366 6.65815798 -5 3 C-6.76853292 2.90061137 -8.54118275 2.87030777 -10.3125 2.875 C-11.76076172 2.87113281 -11.76076172 2.87113281 -13.23828125 2.8671875 C-15.66143705 2.98371833 -17.68644969 3.30758352 -20 4 C-20.33 2.68 -20.66 1.36 -21 0 C-14.47456743 -4.35028838 -6.55884337 -4.32287404 0 0 Z " fill="#151515" transform="translate(1028,1404)"/>
<path d="M0 0 C1.65 0 3.3 0 5 0 C5.98197493 3.56173198 6.96008343 7.12451465 7.9375 10.6875 C8.21529297 11.69490234 8.49308594 12.70230469 8.77929688 13.74023438 C9.18051758 15.20493164 9.18051758 15.20493164 9.58984375 16.69921875 C9.83597412 17.59471436 10.08210449 18.49020996 10.33569336 19.4128418 C10.98197951 21.92981875 11.51524101 24.44747238 12 27 C12.24234375 26.05640625 12.4846875 25.1128125 12.734375 24.140625 C14.85608043 15.97931642 17.21164956 7.96459673 20 0 C22.31 0 24.62 0 27 0 C27.48919922 1.57587891 27.48919922 1.57587891 27.98828125 3.18359375 C28.42964033 4.60157718 28.87104928 6.0195451 29.3125 7.4375 C29.63250977 8.46907227 29.63250977 8.46907227 29.95898438 9.52148438 C31.57382828 14.70344615 33.26735574 19.85628294 35 25 C35.176521 24.31373535 35.35304199 23.6274707 35.53491211 22.92041016 C36.33344535 19.82133442 37.13542849 16.72316179 37.9375 13.625 C38.21529297 12.54476563 38.49308594 11.46453125 38.77929688 10.3515625 C39.18051758 8.8046875 39.18051758 8.8046875 39.58984375 7.2265625 C39.83597412 6.27346191 40.08210449 5.32036133 40.33569336 4.33837891 C41 2 41 2 42 0 C43.65 0 45.3 0 47 0 C45.6875761 6.84256764 44.18733378 13.6154386 42.5 20.375 C42.28730469 21.25027344 42.07460937 22.12554688 41.85546875 23.02734375 C41.64535156 23.87167969 41.43523437 24.71601562 41.21875 25.5859375 C41.03248047 26.3392334 40.84621094 27.0925293 40.65429688 27.86865234 C39.98049168 30.06354764 39.08273521 31.97931393 38 34 C36.02 34 34.04 34 32 34 C29.54026635 28.62609511 27.83406658 23.26722545 26.3125 17.5625 C26.08755859 16.73556641 25.86261719 15.90863281 25.63085938 15.05664062 C25.08271029 13.03898546 24.54071336 11.01966057 24 9 C19.89221202 16.85043925 17.43054239 25.51151484 15 34 C12.69 34 10.38 34 8 34 C7.82871582 33.33991943 7.65743164 32.67983887 7.48095703 31.99975586 C6.69651386 28.97877571 5.91076738 25.95813598 5.125 22.9375 C4.85558594 21.89916016 4.58617187 20.86082031 4.30859375 19.79101562 C2.64048462 13.37404133 2.64048462 13.37404133 0.8046875 7.00390625 C0 4 0 4 0 0 Z " fill="#101010" transform="translate(1032,1490)"/>
<path d="M0 0 C3.68623011 1.61272567 4.75355 2.630325 7 6 C7.22705078 9.00268555 7.22705078 9.00268555 7.1953125 12.63671875 C7.18886719 13.93544922 7.18242188 15.23417969 7.17578125 16.57226562 C7.1590706 17.94401307 7.14214071 19.31575786 7.125 20.6875 C7.11496674 22.07095718 7.10584149 23.45442127 7.09765625 24.83789062 C7.07404967 28.22543452 7.04112037 31.61263072 7 35 C5.68 35 4.36 35 3 35 C3 33.68 3 32.36 3 31 C1.6078125 31.9590625 1.6078125 31.9590625 0.1875 32.9375 C-4.38981415 35.89929151 -7.58860256 36.458593 -13 36 C-18.53846154 32.92307692 -18.53846154 32.92307692 -20 30 C-20.47823278 26.91872804 -20.57808529 24.07074663 -20 21 C-17.86704545 18.19762587 -15.14146646 16.57073323 -12 15 C-9.62597499 14.92883618 -7.24999323 14.91590915 -4.875 14.9375 C-3.59367188 14.94652344 -2.31234375 14.95554687 -0.9921875 14.96484375 C-0.00476563 14.97644531 0.98265625 14.98804688 2 15 C1.67039784 9.98464948 1.67039784 9.98464948 -1 6 C-3.30313107 5.71852807 -3.30313107 5.71852807 -5.875 5.8125 C-6.73867188 5.81894531 -7.60234375 5.82539062 -8.4921875 5.83203125 C-10.79192226 5.98606333 -12.79283489 6.35838224 -15 7 C-15.33 5.68 -15.66 4.36 -16 3 C-10.73121271 -0.32765513 -6.06015619 -0.75878416 0 0 Z " fill="#0F0F0F" transform="translate(824,1401)"/>
<path d="M0 0 C2.5625 1.6875 2.5625 1.6875 4.5625 4.6875 C4.78955078 7.69018555 4.78955078 7.69018555 4.7578125 11.32421875 C4.75136719 12.62294922 4.74492188 13.92167969 4.73828125 15.25976562 C4.7215706 16.63151307 4.70464071 18.00325786 4.6875 19.375 C4.67746674 20.75845718 4.66834149 22.14192127 4.66015625 23.52539062 C4.63654967 26.91293452 4.60362037 30.30013072 4.5625 33.6875 C3.2425 33.6875 1.9225 33.6875 0.5625 33.6875 C0.2325 32.3675 -0.0975 31.0475 -0.4375 29.6875 C-1.200625 30.326875 -1.96375 30.96625 -2.75 31.625 C-6.95996501 34.85590338 -10.22767806 35.04679806 -15.4375 34.6875 C-18.9761994 33.03610695 -20.24820153 31.97144771 -22.4375 28.6875 C-22.8783216 24.13234344 -23.06905339 21.80486369 -20.8125 17.8125 C-14.92108472 12.5412337 -7.90369813 13.47003792 -0.4375 13.6875 C-0.7675 10.7175 -1.0975 7.7475 -1.4375 4.6875 C-3.354088 4.66037847 -5.2707873 4.64104903 -7.1875 4.625 C-8.25484375 4.61339844 -9.3221875 4.60179687 -10.421875 4.58984375 C-12.97118501 4.67239913 -15.01683591 4.94132442 -17.4375 5.6875 C-17.7675 4.3675 -18.0975 3.0475 -18.4375 1.6875 C-12.26976917 -2.10802667 -6.70516888 -2.56015539 0 0 Z " fill="#111111" transform="translate(896.4375,1490.3125)"/>
<path d="M0 0 C5.19719122 1.79902773 7.32849441 4.25065673 10 9 C11 12 11 12 11 19 C3.08 19 -4.84 19 -13 19 C-10.93066018 26.24650101 -10.93066018 26.24650101 -6 30 C-3.58273478 30.39777947 -3.58273478 30.39777947 -1.0625 30.25 C-0.18980469 30.22421875 0.68289063 30.1984375 1.58203125 30.171875 C4.12258014 29.99128671 6.53663979 29.65689606 9 29 C9 30.65 9 32.3 9 34 C2.8295349 36.53147286 -2.93578974 37.06068817 -9.25 34.875 C-13.4296989 32.0252053 -16.36864324 28.89407029 -18 24 C-18.52770615 17.05863451 -18.65473901 11.04922319 -15 5 C-10.15537894 0.50986341 -6.57295251 -0.66220044 0 0 Z " fill="#101010" transform="translate(1007,1489)"/>
<path d="M0 0 C3.07042974 2.2053202 5.01837706 4.86878538 6.69140625 8.21484375 C6.69140625 10.52484375 6.69140625 12.83484375 6.69140625 15.21484375 C-5.84859375 15.21484375 -18.38859375 15.21484375 -31.30859375 15.21484375 C-31.30859375 8.20175172 -29.89153408 6.11198093 -25.30859375 1.21484375 C-17.86195375 -4.28148577 -7.98751639 -4.53432749 0 0 Z " fill="#FAFAFA" transform="translate(1496.30859375,1237.78515625)"/>
<path d="M0 0 C1.65 0 3.3 0 5 0 C5.33 5.94 5.66 11.88 6 18 C6.99 17.01 7.98 16.02 9 15 C13.06872744 13.64375752 16.75021964 13.33393562 21 14 C24.0735547 15.70540923 26.40579136 17.81158271 28 21 C28.08543895 23.10528933 28.10714725 25.21331157 28.09765625 27.3203125 C28.09443359 28.57714844 28.09121094 29.83398438 28.08789062 31.12890625 C28.07951172 32.44761719 28.07113281 33.76632812 28.0625 35.125 C28.05748489 36.46484211 28.05292201 37.804686 28.04882812 39.14453125 C28.03701086 42.42973206 28.02053617 45.71484397 28 49 C26.35 49 24.7 49 23 49 C22.98018066 48.19256348 22.96036133 47.38512695 22.93994141 46.55322266 C22.84494101 42.91014125 22.73516088 39.26765314 22.625 35.625 C22.5940625 34.35398437 22.563125 33.08296875 22.53125 31.7734375 C22.49257812 30.56171875 22.45390625 29.35 22.4140625 28.1015625 C22.3826416 26.98088379 22.3512207 25.86020508 22.31884766 24.70556641 C22.26588797 21.85289588 22.26588797 21.85289588 20 20 C17.66595946 19.642852 17.66595946 19.642852 15.0625 19.6875 C14.18722656 19.67074219 13.31195312 19.65398437 12.41015625 19.63671875 C9.55953647 20.06639077 8.74135859 20.75643141 7 23 C5.71394339 25.57211322 5.78956059 27.56906966 5.68359375 30.4453125 C5.64169922 31.52167969 5.59980469 32.59804687 5.55664062 33.70703125 C5.49766602 35.39892578 5.49766602 35.39892578 5.4375 37.125 C5.39431641 38.26066406 5.35113281 39.39632813 5.30664062 40.56640625 C5.2003396 43.37747768 5.09830595 46.18863945 5 49 C3.35 49 1.7 49 0 49 C0 32.83 0 16.66 0 0 Z " fill="#090909" transform="translate(1228,1387)"/>
<path d="M0 0 C1.65 0 3.3 0 5 0 C5.33 9.9 5.66 19.8 6 30 C10.51021889 24.85094757 10.51021889 24.85094757 15.00390625 19.6875 C19.24452711 15.09615109 19.24452711 15.09615109 23.4375 14.5625 C24.283125 14.706875 25.12875 14.85125 26 15 C23.00260985 18.59261656 20.0165749 22.02463516 16.5625 25.1875 C13.790145 27.58400339 13.790145 27.58400339 14.03125 29.76953125 C15.46679784 33.07476438 17.68946969 35.7191266 19.9375 38.5 C25.44141481 45.36626997 25.44141481 45.36626997 27 49 C24.3671875 49.4296875 24.3671875 49.4296875 21 49 C18.63307016 47.01468649 16.92349527 44.62236707 15.125 42.125 C14.62742187 41.47402344 14.12984375 40.82304688 13.6171875 40.15234375 C10 35.33273953 10 35.33273953 10 33 C7.90948181 34.05413634 7.90948181 34.05413634 6 36 C5.29875226 39.18596662 5.29875226 39.18596662 5.25 42.6875 C5.19328125 43.86699219 5.1365625 45.04648438 5.078125 46.26171875 C5.05234375 47.16535156 5.0265625 48.06898437 5 49 C3.35 49 1.7 49 0 49 C0 32.83 0 16.66 0 0 Z " fill="#060606" transform="translate(1179,1475)"/>
<path d="M0 0 C2.87029869 1.79393668 4.49131638 2.98263276 6 6 C7.03888907 18.33042104 7.03888907 18.33042104 4.125 22.75 C1.26915677 25.77383401 -0.33250231 26.18491286 -4.375 26.3125 C-7.72608796 26.28017439 -8.70713845 26.21232462 -11.5 24.1875 C-15.33046658 18.6014029 -14.64414125 11.48688129 -14 5 C-10.74446837 -0.67092606 -6.07118659 -1.22083643 0 0 Z " fill="#FAFAFA" transform="translate(927,1406)"/>
<path d="M0 0 C2.95826617 0.69349518 4.8867396 1.82549633 6.609375 4.37890625 C8.33211302 9.23389522 8.13951207 14.52023575 7.3828125 19.55859375 C5.69136486 23.05458 4.65362545 24.37805179 1.3828125 26.55859375 C-5.61375631 27.34852894 -5.61375631 27.34852894 -9.5546875 24.24609375 C-13.61330916 18.95758674 -13.32732742 12.97521515 -12.6171875 6.55859375 C-10.47136859 0.61379952 -5.81487023 -0.42526663 0 0 Z " fill="#FBFBFB" transform="translate(1111.6171875,1493.44140625)"/>
<path d="M0 0 C2.95826617 0.69349518 4.8867396 1.82549633 6.609375 4.37890625 C8.33211302 9.23389522 8.13951207 14.52023575 7.3828125 19.55859375 C5.69136486 23.05458 4.65362545 24.37805179 1.3828125 26.55859375 C-5.61375631 27.34852894 -5.61375631 27.34852894 -9.5546875 24.24609375 C-13.61330916 18.95758674 -13.32732742 12.97521515 -12.6171875 6.55859375 C-10.47136859 0.61379952 -5.81487023 -0.42526663 0 0 Z " fill="#FBFBFB" transform="translate(1366.6171875,1405.44140625)"/>
<path d="M0 0 C1.95099609 -0.00773437 1.95099609 -0.00773437 3.94140625 -0.015625 C7.10579413 0.22479777 8.81107522 0.56588029 11.4375 2.25 C11.1075 3.57 10.7775 4.89 10.4375 6.25 C9.19613281 6.20359375 7.95476563 6.1571875 6.67578125 6.109375 C5.03387829 6.07184579 3.39194923 6.03544686 1.75 6 C0.93337891 5.96648437 0.11675781 5.93296875 -0.72460938 5.8984375 C-4.65846667 5.83473131 -6.97745479 5.91839543 -10.45703125 7.890625 C-14.77503007 12.72934724 -15.97982671 16.81634034 -15.9375 23.25 C-15.94523438 24.425625 -15.95296875 25.60125 -15.9609375 26.8125 C-15.37254317 31.88884325 -13.78683164 35.14511535 -10 38.5625 C-4.43033594 42.41842127 1.52269598 41.65204193 8.0625 40.75 C9.238125 40.5025 9.238125 40.5025 10.4375 40.25 C10.4375 41.9 10.4375 43.55 10.4375 45.25 C6.6534909 46.51133637 3.0696504 46.51222833 -0.875 46.5625 C-1.62201172 46.59150391 -2.36902344 46.62050781 -3.13867188 46.65039062 C-8.44026742 46.7109005 -11.33251626 45.70915839 -15.5625 42.25 C-20.7165128 36.94872969 -22.71291591 31.11148277 -22.9375 23.8125 C-22.6438193 15.31925424 -20.62628798 9.5992747 -14.4765625 3.66015625 C-9.83484252 0.2404401 -5.67972611 -0.02256098 0 0 Z " fill="#0D0D0D" transform="translate(530.5625,1389.75)"/>
<path d="M0 0 C1.98 0 3.96 0 6 0 C7.48276243 3.91531484 8.96058457 7.83247623 10.4375 11.75 C11.06881836 13.41675781 11.06881836 13.41675781 11.71289062 15.1171875 C12.11572266 16.18710938 12.51855469 17.25703125 12.93359375 18.359375 C13.30540771 19.34389648 13.67722168 20.32841797 14.06030273 21.34277344 C14.84292412 23.55582908 15.48513635 25.71277161 16 28 C16.23074219 27.22398438 16.46148438 26.44796875 16.69921875 25.6484375 C23.76923077 2.23076923 23.76923077 2.23076923 26 0 C27.66617115 -0.04063832 29.33388095 -0.042721 31 0 C28.72371112 8.18079935 25.87655103 16.14228663 22.92138672 24.09667969 C22.38855932 25.53737179 21.86124713 26.98011515 21.33935547 28.42480469 C20.5741031 30.54300792 19.79283983 32.65468247 19.0078125 34.765625 C18.78054474 35.40324768 18.55327698 36.04087036 18.31912231 36.69781494 C16.47361157 41.57186236 13.83632262 46.58183869 9 49 C7.45976004 49.06950541 5.91665012 49.08452357 4.375 49.0625 C3.14910156 49.04896484 3.14910156 49.04896484 1.8984375 49.03515625 C1.27195312 49.02355469 0.64546875 49.01195312 0 49 C0 47.68 0 46.36 0 45 C1.60875 44.9071875 1.60875 44.9071875 3.25 44.8125 C7.04251987 44.31394424 7.04251987 44.31394424 9.375 41.875 C11.33711262 38.40356997 11.74597614 35.9810825 12 32 C11.06911378 28.40741653 11.06911378 28.40741653 9.47265625 24.82421875 C9.20488876 24.17298538 8.93712128 23.52175201 8.66123962 22.8507843 C7.81037244 20.78954798 6.93747917 18.73860162 6.0625 16.6875 C5.19575755 14.61688185 4.33366564 12.54441846 3.47447205 10.47065735 C2.69698056 8.60030423 1.90749778 6.73494927 1.11743164 4.86987305 C0 2 0 2 0 0 Z " fill="#0C0C0C" transform="translate(1438,1402)"/>
<path d="M0 0 C3.5031359 2.4440483 4.22056682 3.8153477 5.6875 7.875 C6.04933513 12.33999332 5.96955868 16.77422257 5.875 21.25 C5.85469727 23.06951172 5.85469727 23.06951172 5.83398438 24.92578125 C5.79874582 27.90931206 5.74947525 30.89192458 5.6875 33.875 C3.7075 33.875 1.7275 33.875 -0.3125 33.875 C-0.33231934 33.06756348 -0.35213867 32.26012695 -0.37255859 31.42822266 C-0.46755899 27.78514125 -0.57733912 24.14265314 -0.6875 20.5 C-0.7184375 19.22898437 -0.749375 17.95796875 -0.78125 16.6484375 C-0.81992187 15.43671875 -0.85859375 14.225 -0.8984375 12.9765625 C-0.9298584 11.85588379 -0.9612793 10.73520508 -0.99365234 9.58056641 C-1.04661203 6.72789588 -1.04661203 6.72789588 -3.3125 4.875 C-5.60907708 4.4417849 -5.60907708 4.4417849 -8.1875 4.4375 C-9.05117188 4.39753906 -9.91484375 4.35757812 -10.8046875 4.31640625 C-13.4412403 4.71720346 -13.4412403 4.71720346 -15.5859375 6.6328125 C-18.25432491 11.64358524 -17.99056168 16.592661 -18.0625 22.1875 C-18.09214844 23.30962891 -18.12179687 24.43175781 -18.15234375 25.58789062 C-18.22287417 28.35033207 -18.27565493 31.11193774 -18.3125 33.875 C-19.9625 33.875 -21.6125 33.875 -23.3125 33.875 C-23.3125 22.655 -23.3125 11.435 -23.3125 -0.125 C-21.6625 -0.125 -20.0125 -0.125 -18.3125 -0.125 C-17.9825 0.865 -17.6525 1.855 -17.3125 2.875 C-16.4875 2.215 -15.6625 1.555 -14.8125 0.875 C-9.91478755 -2.37088962 -5.38518137 -1.82892952 0 0 Z " fill="#121212" transform="translate(980.3125,1402.125)"/>
<path d="M0 0 C4.98669007 2.49334503 8.49675474 5.99350949 11 11 C11.65412623 19.28979203 11.51512662 25.82578714 6 32.375 C1.86511051 35.73459771 -2.86785786 35.45117173 -7.9765625 35.4140625 C-11.93230649 34.87231978 -13.87065671 33.52003943 -16.6953125 30.80078125 C-21.1861248 24.60238463 -20.68885719 17.32771834 -20 10 C-16.10486384 1.31085011 -9.03902283 -1.45743202 0 0 Z M-12.5625 6.8125 C-15.97175754 12.0005006 -15.59252191 18.01157855 -15 24 C-13.73586911 27.19926963 -12.14989582 29.42505209 -9 31 C-3.26749088 31.50380686 -3.26749088 31.50380686 1.875 29.3125 C5.83014259 25.00837424 6.44241695 20.98461148 6.328125 15.2890625 C5.78371143 11.49112971 4.20802995 9.11721875 2 6 C-2.48967416 3.75516292 -8.5187982 3.95232068 -12.5625 6.8125 Z " fill="#0C0C0C" transform="translate(1295,1401)"/>
<path d="M0 0 C4.98669007 2.49334503 8.49675474 5.99350949 11 11 C11.65412623 19.28979203 11.51512662 25.82578714 6 32.375 C1.86511051 35.73459771 -2.86785786 35.45117173 -7.9765625 35.4140625 C-11.93230649 34.87231978 -13.87065671 33.52003943 -16.6953125 30.80078125 C-21.1861248 24.60238463 -20.68885719 17.32771834 -20 10 C-16.10486384 1.31085011 -9.03902283 -1.45743202 0 0 Z M-12.5625 6.8125 C-15.97175754 12.0005006 -15.59252191 18.01157855 -15 24 C-13.73586911 27.19926963 -12.14989582 29.42505209 -9 31 C-3.26749088 31.50380686 -3.26749088 31.50380686 1.875 29.3125 C5.83014259 25.00837424 6.44241695 20.98461148 6.328125 15.2890625 C5.78371143 11.49112971 4.20802995 9.11721875 2 6 C-2.48967416 3.75516292 -8.5187982 3.95232068 -12.5625 6.8125 Z " fill="#0C0C0C" transform="translate(578,1401)"/>
<path d="M0 0 C1.65 0 3.3 0 5 0 C5.02187378 1.15786011 5.02187378 1.15786011 5.04418945 2.33911133 C5.11858033 5.83075093 5.2152709 9.3214249 5.3125 12.8125 C5.33505859 14.02744141 5.35761719 15.24238281 5.38085938 16.49414062 C5.41630859 17.65751953 5.45175781 18.82089844 5.48828125 20.01953125 C5.51446533 21.09307861 5.54064941 22.16662598 5.56762695 23.27270508 C5.78300189 26.01430525 5.78300189 26.01430525 7.3972168 27.84887695 C9.51647203 29.37093155 10.90906942 29.40090931 13.5 29.375 C14.2734375 29.38273437 15.046875 29.39046875 15.84375 29.3984375 C18.49005943 28.90944554 19.3402954 28.07463075 21 26 C22.28605661 23.42788678 22.21043941 21.43093034 22.31640625 18.5546875 C22.35830078 17.47832031 22.40019531 16.40195313 22.44335938 15.29296875 C22.48267578 14.16503906 22.52199219 13.03710938 22.5625 11.875 C22.60568359 10.73933594 22.64886719 9.60367187 22.69335938 8.43359375 C22.7996604 5.62252232 22.90169405 2.81136055 23 0 C24.98 0 26.96 0 29 0 C29 11.22 29 22.44 29 34 C27.35 34 25.7 34 24 34 C24 32.68 24 31.36 24 30 C23.2575 30.66 22.515 31.32 21.75 32 C17.01300912 35.1655309 11.45472792 34.77924685 6 34 C2.92634214 32.19196596 1.56980268 31.13960536 0 28 C-0.08543895 25.89471067 -0.10714725 23.78668843 -0.09765625 21.6796875 C-0.09443359 20.42285156 -0.09121094 19.16601562 -0.08789062 17.87109375 C-0.07951172 16.55238281 -0.07113281 15.23367188 -0.0625 13.875 C-0.05748489 12.53515789 -0.05292201 11.195314 -0.04882812 9.85546875 C-0.03701086 6.57026794 -0.02053617 3.28515603 0 0 Z " fill="#111111" transform="translate(725,1402)"/>
<path d="M0 0 C3.0625 1.625 3.0625 1.625 5 5 C5.85490752 11.95546122 6.25728814 18.15666333 2 24 C-0.39286884 26.39286884 -1.09447094 26.32050616 -4.375 26.375 C-7.70887324 26.30532098 -8.72439157 26.19981611 -11.5 24.1875 C-14.10938399 20.38214835 -14.18811222 17.13249323 -14.25 12.625 C-14.27578125 11.50351563 -14.3015625 10.38203125 -14.328125 9.2265625 C-13.96680751 5.67360717 -13.12554458 3.83749883 -11 1 C-7.49429299 -0.75285351 -3.82521805 -0.52761628 0 0 Z " fill="#FAFAFA" transform="translate(696,1406)"/>
<path d="M0 0 C8.58 0 17.16 0 26 0 C26 1.65 26 3.3 26 5 C19.07 5 12.14 5 5 5 C5 10.61 5 16.22 5 22 C11.27 22 17.54 22 24 22 C24 23.32 24 24.64 24 26 C17.73 26 11.46 26 5 26 C5 32.6 5 39.2 5 46 C3.35 46 1.7 46 0 46 C0 30.82 0 15.64 0 0 Z " fill="#0E0E0E" transform="translate(799,1478)"/>
<path d="M0 0 C0.99 0 1.98 0 3 0 C3 2.64 3 5.28 3 8 C6.63 8 10.26 8 14 8 C14 9.32 14 10.64 14 12 C10.7 12 7.4 12 4 12 C4.13814223 15.9794733 4.28679674 19.95848415 4.4375 23.9375 C4.47681641 25.07380859 4.51613281 26.21011719 4.55664062 27.38085938 C4.61948242 29.00024414 4.61948242 29.00024414 4.68359375 30.65234375 C4.72025146 31.65257568 4.75690918 32.65280762 4.79467773 33.68334961 C4.74671841 35.96069188 4.74671841 35.96069188 6 37 C7.34747084 37.23075082 8.70377565 37.41153063 10.0625 37.5625 C11.361875 37.706875 12.66125 37.85125 14 38 C14 39.32 14 40.64 14 42 C6.11288333 43.42621064 6.11288333 43.42621064 2.0625 41.875 C-0.96144183 39.12596197 -1.88396137 36.36913111 -2.22705078 32.32104492 C-2.21657715 31.38365479 -2.20610352 30.44626465 -2.1953125 29.48046875 C-2.18886719 28.45888672 -2.18242188 27.43730469 -2.17578125 26.38476562 C-2.15902344 25.32966797 -2.14226563 24.27457031 -2.125 23.1875 C-2.11597656 22.11306641 -2.10695313 21.03863281 -2.09765625 19.93164062 C-2.07415306 17.28753146 -2.04129575 14.64388128 -2 12 C-3.65 12 -5.3 12 -7 12 C-7 11.01 -7 10.02 -7 9 C-5.02 8.34 -3.04 7.68 -1 7 C-0.67 4.69 -0.34 2.38 0 0 Z " fill="#1B1B1B" transform="translate(776,1394)"/>
<path d="M0 0 C0.99 0 1.98 0 3 0 C3 2.64 3 5.28 3 8 C6.3 8 9.6 8 13 8 C13 9.32 13 10.64 13 12 C9.7 12 6.4 12 3 12 C3.11368002 15.60485338 3.24043564 19.20841799 3.375 22.8125 C3.4059375 23.83666016 3.436875 24.86082031 3.46875 25.91601562 C3.50742188 26.89892578 3.54609375 27.88183594 3.5859375 28.89453125 C3.6173584 29.80050049 3.6487793 30.70646973 3.68115234 31.63989258 C3.86027919 34.26525392 3.86027919 34.26525392 6 37 C9.56769552 37.73606499 9.56769552 37.73606499 13 38 C13 39.32 13 40.64 13 42 C10.17998673 43.41000664 8.12992745 43.24548451 5 43 C1.21083145 41.27765066 -0.50225953 39.85468893 -2 36 C-2.22705078 33.34277344 -2.22705078 33.34277344 -2.1953125 30.359375 C-2.18886719 29.28945312 -2.18242188 28.21953125 -2.17578125 27.1171875 C-2.15902344 26.00601562 -2.14226562 24.89484375 -2.125 23.75 C-2.11597656 22.62335938 -2.10695313 21.49671875 -2.09765625 20.3359375 C-2.07410658 17.55707635 -2.0412168 14.7786461 -2 12 C-3.65 12 -5.3 12 -7 12 C-7 11.01 -7 10.02 -7 9 C-6.401875 8.814375 -5.80375 8.62875 -5.1875 8.4375 C-1.90018201 6.27726247 -1.35145313 3.64892345 0 0 Z " fill="#0E0E0E" transform="translate(1198,1394)"/>
<path d="M0 0 C1.32 0 2.64 0 4 0 C4 2.64 4 5.28 4 8 C7.3 8 10.6 8 14 8 C14 9.32 14 10.64 14 12 C10.7 12 7.4 12 4 12 C4.14033182 15.79194483 4.28700628 19.58345678 4.4375 23.375 C4.47681641 24.45523437 4.51613281 25.53546875 4.55664062 26.6484375 C4.61948242 28.1953125 4.61948242 28.1953125 4.68359375 29.7734375 C4.72025146 30.72653809 4.75690918 31.67963867 4.79467773 32.66162109 C4.85763465 35.02132349 4.85763465 35.02132349 6 37 C7.89533342 37.46523063 7.89533342 37.46523063 10.0625 37.625 C12.0115625 37.810625 12.0115625 37.810625 14 38 C14 39.32 14 40.64 14 42 C12.25215533 42.13560864 10.50126074 42.23227209 8.75 42.3125 C7.77546875 42.37050781 6.8009375 42.42851563 5.796875 42.48828125 C3 42 3 42 0.84960938 39.84179688 C-1.29048021 36.55369725 -1.47019225 34.92187195 -1.390625 31.04296875 C-1.37773438 29.93115234 -1.36484375 28.81933594 -1.3515625 27.67382812 C-1.31804688 26.52333984 -1.28453125 25.37285156 -1.25 24.1875 C-1.23195313 23.01767578 -1.21390625 21.84785156 -1.1953125 20.64257812 C-1.1482644 17.7608822 -1.08253709 14.88086203 -1 12 C-2.65 12 -4.3 12 -6 12 C-5.6875 10.0625 -5.6875 10.0625 -5 8 C-4.01 7.67 -3.02 7.34 -2 7 C-0.77030122 3.48809191 -0.77030122 3.48809191 0 0 Z " fill="#0D0D0D" transform="translate(853,1394)"/>
<path d="M0 0 C12.05357143 -0.66964286 12.05357143 -0.66964286 15.75 2.0625 C18 5 18 5 18.5 8.5625 C18.05515142 11.62083399 17.75770687 13.50220603 16 16 C11.0754853 19.2830098 5.82305673 18.11530805 0 18 C0 12.06 0 6.12 0 0 Z " fill="#FBFBFB" transform="translate(1109,1395)"/>
<path d="M0 0 C0 1.65 0 3.3 0 5 C-0.67546875 5.07476563 -1.3509375 5.14953125 -2.046875 5.2265625 C-2.93890625 5.35804687 -3.8309375 5.48953125 -4.75 5.625 C-6.07257813 5.79902344 -6.07257813 5.79902344 -7.421875 5.9765625 C-10.27694849 7.10994016 -11.67349704 8.35130264 -13.24511719 10.99853516 C-14.85946393 15.27874687 -14.68581456 19.85284415 -14.75 24.375 C-14.77964844 25.39722656 -14.80929687 26.41945313 -14.83984375 27.47265625 C-14.91019494 29.98184853 -14.96306206 32.49013054 -15 35 C-16.65 35 -18.3 35 -20 35 C-20 23.78 -20 12.56 -20 1 C-18.35 1 -16.7 1 -15 1 C-14.67 2.32 -14.34 3.64 -14 5 C-13.175 4.175 -12.35 3.35 -11.5 2.5 C-7.71189747 -0.71716841 -4.82272823 -0.41575243 0 0 Z " fill="#111111" transform="translate(1163,1489)"/>
<path d="M0 0 C-0.33 1.65 -0.66 3.3 -1 5 C-1.60328125 5.07476563 -2.2065625 5.14953125 -2.828125 5.2265625 C-4.02695312 5.42378906 -4.02695312 5.42378906 -5.25 5.625 C-6.03890625 5.74101563 -6.8278125 5.85703125 -7.640625 5.9765625 C-10.3289973 7.14271075 -11.71541212 8.48713551 -13.22753906 10.99853516 C-14.87534248 15.26803338 -14.68582089 19.85328979 -14.75 24.375 C-14.77964844 25.39722656 -14.80929687 26.41945313 -14.83984375 27.47265625 C-14.91019494 29.98184853 -14.96306206 32.49013054 -15 35 C-16.65 35 -18.3 35 -20 35 C-20 23.78 -20 12.56 -20 1 C-18.35 1 -16.7 1 -15 1 C-14.67 2.32 -14.34 3.64 -14 5 C-13.175 4.175 -12.35 3.35 -11.5 2.5 C-7.71189747 -0.71716841 -4.82272823 -0.41575243 0 0 Z " fill="#0A0A0A" transform="translate(861,1489)"/>
<path d="M0 0 C1.65 0 3.3 0 5 0 C5 16.17 5 32.34 5 49 C3.35 49 1.7 49 0 49 C0 32.83 0 16.66 0 0 Z " fill="#050505" transform="translate(1325,1387)"/>
<path d="M0 0 C1.65 0 3.3 0 5 0 C5 16.17 5 32.34 5 49 C3.35 49 1.7 49 0 49 C0 32.83 0 16.66 0 0 Z " fill="#020202" transform="translate(1051,1387)"/>
<path d="M0 0 C1.00836914 0.00193359 1.00836914 0.00193359 2.03710938 0.00390625 C5.69237284 0.06924363 7.3260328 0.30068853 10.4375 2.375 C10.84626538 5.57699548 11.05700801 7.51948894 9.125 10.1875 C5.58418827 12.67918233 2.12926432 12.56835454 -2.0625 12.625 C-3.2071875 12.65078125 -4.351875 12.6765625 -5.53125 12.703125 C-8.5625 12.375 -8.5625 12.375 -10.44140625 11.01171875 C-12.07771173 8.62282677 -12.0461711 7.20793071 -11.5625 4.375 C-8.26872242 -0.15187522 -5.39891759 -0.11610575 0 0 Z " fill="#F3F3F3" transform="translate(1410.5625,1434.625)"/>
<path d="M0 0 C2.4375 1 2.4375 1 4 3 C4.45499176 7.09492581 4.51865483 9.70336293 3 13.5 C0.39432043 15.45425968 -1.85143191 15.56200389 -5.05859375 15.37890625 C-7 15 -7 15 -9.5 13.4375 C-11.58392818 10.05111671 -11.55802097 7.90614682 -11 4 C-8.09912777 -0.52536068 -5.13093735 -0.64136717 0 0 Z " fill="#F5F5F5" transform="translate(1413,1405)"/>
<path d="M0 0 C0.90105469 0.00902344 1.80210938 0.01804687 2.73046875 0.02734375 C3.41753906 0.03894531 4.10460938 0.05054688 4.8125 0.0625 C5.31591475 5.3483549 4.08160671 7.92804151 0.8125 12.0625 C-1.54096396 13.23923198 -3.0681033 13.22873866 -5.6875 13.25 C-6.4815625 13.26417969 -7.275625 13.27835938 -8.09375 13.29296875 C-10.1875 13.0625 -10.1875 13.0625 -12.1875 11.0625 C-12.5625 7.625 -12.5625 7.625 -12.1875 4.0625 C-8.64735813 0.40028427 -4.91026317 -0.06376965 0 0 Z " fill="#F0F0F0" transform="translate(1166.1875,1418.9375)"/>
<path d="M0 0 C0.90105469 0.00902344 1.80210937 0.01804687 2.73046875 0.02734375 C3.41753906 0.03894531 4.10460938 0.05054688 4.8125 0.0625 C5.31591475 5.3483549 4.08160671 7.92804151 0.8125 12.0625 C-1.54096396 13.23923198 -3.0681033 13.22873866 -5.6875 13.25 C-6.4815625 13.26417969 -7.275625 13.27835938 -8.09375 13.29296875 C-10.1875 13.0625 -10.1875 13.0625 -12.1875 11.0625 C-12.5625 7.625 -12.5625 7.625 -12.1875 4.0625 C-8.64735813 0.40028427 -4.91026317 -0.06376965 0 0 Z " fill="#F0F0F0" transform="translate(1021.1875,1418.9375)"/>
<path d="M0 0 C0.90105469 0.00902344 1.80210937 0.01804687 2.73046875 0.02734375 C3.41753906 0.03894531 4.10460937 0.05054688 4.8125 0.0625 C4.62467902 8.0534291 4.62467902 8.0534291 1.75 11.625 C-2.30835263 13.61100235 -4.68840947 13.57046183 -9.1875 13.0625 C-11.1875 11.875 -11.1875 11.875 -12.1875 10.0625 C-12.625 7.625 -12.625 7.625 -12.1875 5.0625 C-8.6078046 0.6187402 -5.52730218 -0.07178315 0 0 Z " fill="#F3F3F3" transform="translate(821.1875,1418.9375)"/>
<path d="M0 0 C0.30347349 7.89031079 0.30347349 7.89031079 -2 11 C-5.62219721 13.78630555 -9.64272447 13.28111455 -14 13 C-16 11 -16 11 -16.3125 7.5625 C-16 4 -16 4 -14.8125 2.125 C-10.31455812 -0.666826 -5.10577829 -0.08653862 0 0 Z " fill="#F7F7F7" transform="translate(896,1507)"/>
<path d="M0 0 C1.65 0 3.3 0 5 0 C5 11.22 5 22.44 5 34 C3.35 34 1.7 34 0 34 C0 22.78 0 11.56 0 0 Z " fill="#0D0D0D" transform="translate(883,1402)"/>
<path d="M0 0 C2.12890625 0.453125 2.12890625 0.453125 4.69140625 2.640625 C6.12890625 5.453125 6.12890625 5.453125 6.12890625 10.453125 C0.18890625 10.453125 -5.75109375 10.453125 -11.87109375 10.453125 C-10.87109375 4.453125 -10.87109375 4.453125 -9.37109375 2.078125 C-6.14452716 -0.01914328 -3.79797329 -0.17519481 0 0 Z " fill="#ECECEC" transform="translate(1005.87109375,1493.546875)"/>
<path d="M0 0 C1.67542976 0.28604898 3.34385343 0.61781233 5 1 C4.67 2.98 4.34 4.96 4 7 C2.35 6.67 0.7 6.34 -1 6 C-1.042721 4.33388095 -1.04063832 2.66617115 -1 1 C-0.67 0.67 -0.34 0.34 0 0 Z " fill="#1E1E1E" transform="translate(884,1389)"/>
</svg>
