<svg xmlns="http://www.w3.org/2000/svg" viewBox="0 0 800 800" fill="none">
  <rect width="800" height="800" fill="#000000"/>
  
  <!-- EST. text -->
  <text x="240" y="470" font-family="monospace" font-size="24" fill="#FFFFFF" font-weight="bold">EST.</text>
  
  <!-- Pixelated shield/S icon (recreated to match your image) -->
  <g fill="#FFFFFF">
    <!-- Top diamond -->
    <rect x="395" y="320" width="10" height="10"/>
    
    <!-- Second row -->
    <rect x="375" y="335" width="10" height="10"/>
    <rect x="385" y="335" width="10" height="10"/>
    <rect x="395" y="335" width="10" height="10"/>
    <rect x="405" y="335" width="10" height="10"/>
    <rect x="415" y="335" width="10" height="10"/>
    
    <!-- Third row -->
    <rect x="365" y="350" width="10" height="10"/>
    <rect x="375" y="350" width="10" height="10"/>
    <rect x="385" y="350" width="10" height="10"/>
    <rect x="395" y="350" width="10" height="10"/>
    
    <!-- Fourth row -->
    <rect x="355" y="365" width="10" height="10"/>
    <rect x="365" y="365" width="10" height="10"/>
    <rect x="375" y="365" width="10" height="10"/>
    <rect x="385" y="365" width="10" height="10"/>
    
    <!-- Fifth row -->
    <rect x="345" y="380" width="10" height="10"/>
    <rect x="355" y="380" width="10" height="10"/>
    <rect x="365" y="380" width="10" height="10"/>
    <rect x="375" y="380" width="10" height="10"/>
    <rect x="385" y="380" width="10" height="10"/>
    <rect x="395" y="380" width="10" height="10"/>
    <rect x="405" y="380" width="10" height="10"/>
    <rect x="415" y="380" width="10" height="10"/>
    <rect x="425" y="380" width="10" height="10"/>
    <rect x="435" y="380" width="10" height="10"/>
    <rect x="445" y="380" width="10" height="10"/>
    
    <!-- Sixth row -->
    <rect x="375" y="395" width="10" height="10"/>
    <rect x="385" y="395" width="10" height="10"/>
    <rect x="395" y="395" width="10" height="10"/>
    <rect x="405" y="395" width="10" height="10"/>
    <rect x="415" y="395" width="10" height="10"/>
    <rect x="425" y="395" width="10" height="10"/>
    <rect x="435" y="395" width="10" height="10"/>
    
    <!-- Seventh row -->
    <rect x="385" y="410" width="10" height="10"/>
    <rect x="395" y="410" width="10" height="10"/>
    <rect x="405" y="410" width="10" height="10"/>
    <rect x="415" y="410" width="10" height="10"/>
    <rect x="425" y="410" width="10" height="10"/>
    
    <!-- Eighth row -->
    <rect x="425" y="425" width="10" height="10"/>
    
    <!-- Ninth row -->
    <rect x="375" y="440" width="10" height="10"/>
    <rect x="385" y="440" width="10" height="10"/>
    <rect x="395" y="440" width="10" height="10"/>
    <rect x="405" y="440" width="10" height="10"/>
    <rect x="415" y="440" width="10" height="10"/>
    
    <!-- Tenth row -->
    <rect x="415" y="455" width="10" height="10"/>
    <rect x="425" y="455" width="10" height="10"/>
    <rect x="435" y="455" width="10" height="10"/>
    <rect x="445" y="455" width="10" height="10"/>
    
    <!-- Eleventh row -->
    <rect x="385" y="470" width="10" height="10"/>
    <rect x="395" y="470" width="10" height="10"/>
    <rect x="405" y="470" width="10" height="10"/>
    <rect x="415" y="470" width="10" height="10"/>
    
    <!-- Twelfth row -->
    <rect x="405" y="485" width="10" height="10"/>
    <rect x="415" y="485" width="10" height="10"/>
    <rect x="425" y="485" width="10" height="10"/>
    <rect x="435" y="485" width="10" height="10"/>
    
    <!-- Thirteenth row -->
    <rect x="375" y="500" width="10" height="10"/>
    <rect x="385" y="500" width="10" height="10"/>
    <rect x="395" y="500" width="10" height="10"/>
    <rect x="405" y="500" width="10" height="10"/>
    
    <!-- Fourteenth row -->
    <rect x="395" y="515" width="10" height="10"/>
    <rect x="405" y="515" width="10" height="10"/>
    <rect x="415" y="515" width="10" height="10"/>
    <rect x="425" y="515" width="10" height="10"/>
    
    <!-- Bottom -->
    <rect x="405" y="530" width="10" height="10"/>
  </g>
  
  <!-- 2026 text -->
  <text x="530" y="470" font-family="monospace" font-size="24" fill="#FFFFFF" font-weight="bold">2026</text>
  
  <!-- SENTINEL text -->
  <text x="200" y="660" font-family="monospace" font-size="72" fill="#FFFFFF" font-weight="bold" letter-spacing="8">SENTINEL</text>
</svg>
