<svg width="1200" height="720" viewBox="0 0 1200 720" fill="none" xmlns="http://www.w3.org/2000/svg">
  <rect width="1200" height="720" rx="28" fill="#17191D"/>
  <rect x="48" y="48" width="1104" height="624" rx="24" fill="#1E2127" stroke="#2B313B"/>
  <rect x="92" y="96" width="430" height="528" rx="24" fill="#14171C" stroke="#2F3641"/>
  <rect x="560" y="96" width="548" height="528" rx="24" fill="#14171C" stroke="#2F3641"/>
  <text x="132" y="164" fill="#F6F7FB" font-family="Arial, sans-serif" font-size="50" font-weight="700">SENTINEL</text>
  <text x="132" y="206" fill="#8FB8FF" font-family="Arial, sans-serif" font-size="23">hardened anti-DDoS architecture</text>
  <rect x="132" y="250" width="268" height="58" rx="14" fill="#0F1115" stroke="#313847"/>
  <text x="158" y="287" fill="#7FE7D7" font-family="Courier New, monospace" font-size="22">accuracy 96.00%</text>
  <rect x="132" y="352" width="340" height="206" rx="18" fill="#101318" stroke="#333B47"/>
  <text x="160" y="402" fill="#F6F7FB" font-family="Arial, sans-serif" font-size="27" font-weight="700">Core lanes</text>
  <text x="160" y="446" fill="#A7B4C8" font-family="Arial, sans-serif" font-size="22">• async math workers</text>
  <text x="160" y="482" fill="#A7B4C8" font-family="Arial, sans-serif" font-size="22">• redis shared state</text>
  <text x="160" y="518" fill="#A7B4C8" font-family="Arial, sans-serif" font-size="22">• adaptive z-score filtering</text>
  <text x="160" y="554" fill="#A7B4C8" font-family="Arial, sans-serif" font-size="22">• p2p threat sync</text>
  <rect x="620" y="140" width="420" height="112" rx="18" fill="#101318" stroke="#343C48"/>
  <text x="650" y="184" fill="#F6F7FB" font-family="Arial, sans-serif" font-size="28" font-weight="700">Request path</text>
  <text x="650" y="222" fill="#A7B4C8" font-family="Arial, sans-serif" font-size="17">IP extract → rate limit → fingerprint → verdict</text>
  <rect x="620" y="288" width="420" height="112" rx="18" fill="#101318" stroke="#343C48"/>
  <text x="650" y="332" fill="#F6F7FB" font-family="Arial, sans-serif" font-size="28" font-weight="700">Background path</text>
  <text x="650" y="370" fill="#A7B4C8" font-family="Arial, sans-serif" font-size="17">Math workers train and analyze without blocking</text>
  <rect x="620" y="436" width="420" height="132" rx="18" fill="#101318" stroke="#343C48"/>
  <text x="650" y="480" fill="#F6F7FB" font-family="Arial, sans-serif" font-size="28" font-weight="700">Distribution</text>
  <text x="650" y="518" fill="#FFC977" font-family="Arial, sans-serif" font-size="19">Threat state sync across nodes</text>
  <text x="650" y="552" fill="#7FE7D7" font-family="Arial, sans-serif" font-size="19">Packaged for Windows, Linux, macOS</text>
</svg>
