<svg width="600" height="400" viewBox="0 0 600 400" xmlns="http://www.w3.org/2000/svg">
  <rect width="600" height="400" fill="#ede9fe"/>
  
  <!-- Shield outline -->
  <path d="M 240 140 L 240 190 Q 240 220, 210 235 Q 180 220, 180 190 L 180 140 L 210 125 Z" 
        fill="none" stroke="#5b6ee1" stroke-width="5"/>
  
  <!-- Large bold S integrated into shield -->
  <path d="M 220 160 Q 220 150, 210 150 Q 200 150, 200 160 Q 200 168, 210 172 Q 220 176, 220 184 Q 220 194, 210 194 Q 200 194, 200 184" 
        fill="none" stroke="#5b6ee1" stroke-width="8" stroke-linecap="round"/>
  
  <!-- Scan lines for tech feel -->
  <line x1="185" y1="200" x2="235" y2="200" stroke="#5b6ee1" stroke-width="2" opacity="0.3"/>
  <line x1="185" y1="215" x2="235" y2="215" stroke="#5b6ee1" stroke-width="2" opacity="0.2"/>
  <line x1="185" y1="225" x2="235" y2="225" stroke="#5b6ee1" stroke-width="2" opacity="0.15"/>
  
  <!-- Text -->
  <text x="260" y="205" font-family="'Inter', 'SF Pro Display', -apple-system, sans-serif" font-size="48" font-weight="600" fill="#1e293b" text-anchor="start">ENTINEL</text>
</svg>
