<svg width="200" height="200" viewBox="0 0 200 200" xmlns="http://www.w3.org/2000/svg">
  <defs>
    <linearGradient id="blueGradient" x1="0%" y1="0%" x2="100%" y2="100%">
      <stop offset="0%" style="stop-color:#1e40af;stop-opacity:1" />
      <stop offset="100%" style="stop-color:#1e3a8a;stop-opacity:1" />
    </linearGradient>
  </defs>
  
  <!-- Background circle -->
  <circle cx="100" cy="100" r="95" fill="#f8fafc" stroke="#e2e8f0" stroke-width="2"/>
  
  <!-- Shield shape -->
  <path d="M 100 40 L 140 60 L 140 120 Q 140 140 100 160 Q 60 140 60 120 L 60 60 Z" fill="url(#blueGradient)"/>
  
  <!-- Letter S -->
  <path d="M 85 75 Q 85 70 90 70 L 110 70 Q 115 70 115 75 Q 115 80 110 80 L 95 80 Q 85 80 85 90 Q 85 100 95 100 L 110 100 Q 115 100 115 105 Q 115 110 110 110 L 90 110 Q 85 110 85 115 Q 85 120 90 120 L 110 120 Q 120 120 120 110 L 120 105" 
        stroke="white" stroke-width="8" fill="none" stroke-linecap="round"/>
  
  <!-- Digital/pixel elements on the left -->
  <rect x="70" y="85" width="6" height="6" fill="white" opacity="0.9"/>
  <rect x="70" y="95" width="6" height="6" fill="white" opacity="0.7"/>
  <rect x="70" y="105" width="6" height="6" fill="white" opacity="0.5"/>
  <rect x="78" y="90" width="4" height="4" fill="white" opacity="0.8"/>
  <rect x="78" y="100" width="4" height="4" fill="white" opacity="0.6"/>
  
  <!-- Additional shield details -->
  <path d="M 100 45 L 135 62 L 135 118 Q 135 135 100 152 Q 65 135 65 118 L 65 62 Z" 
        fill="none" stroke="white" stroke-width="1" opacity="0.3"/>
</svg>