<?xml version="1.0" encoding="UTF-8"?>
<svg version="1.1" xmlns="http://www.w3.org/2000/svg" width="2000" height="2000">
<path d="M0 0 C660 0 1320 0 2000 0 C2000 660 2000 1320 2000 2000 C1340 2000 680 2000 0 2000 C0 1340 0 680 0 0 Z " fill="#111111" transform="translate(0,0)"/>
<path d="M0 0 C44.55 0 89.1 0 135 0 C135 8.91 135 17.82 135 27 C99.36 27 63.72 27 27 27 C27 35.91 27 44.82 27 54 C53.73 54 80.46 54 108 54 C108 62.91 108 71.82 108 81 C81.27 81 54.54 81 27 81 C27 89.91 27 98.82 27 108 C62.64 108 98.28 108 135 108 C135 116.91 135 125.82 135 135 C90.45 135 45.9 135 0 135 C0 90.45 0 45.9 0 0 Z " fill="#FEFEFE" transform="translate(1311,1197)"/>
<path d="M0 0 C44.55 0 89.1 0 135 0 C135 8.91 135 17.82 135 27 C99.03 27 63.06 27 26 27 C26 35.91 26 44.82 26 54 C53.06 54 80.12 54 108 54 C108 62.91 108 71.82 108 81 C81.27 81 54.54 81 27 81 C27 89.91 27 98.82 27 108 C62.64 108 98.28 108 135 108 C135 116.91 135 125.82 135 135 C90.45 135 45.9 135 0 135 C0 90.45 0 45.9 0 0 Z " fill="#FEFEFE" transform="translate(554,1197)"/>
<path d="M0 0 C26.73 0 53.46 0 81 0 C81 8.91 81 17.82 81 27 C72.09 27 63.18 27 54 27 C54 53.73 54 80.46 54 108 C62.91 108 71.82 108 81 108 C81 116.91 81 125.82 81 135 C53.94 135 26.88 135 -1 135 C-1 126.09 -1 117.18 -1 108 C8.24 108 17.48 108 27 108 C27 81.27 27 54.54 27 27 C18.09 27 9.18 27 0 27 C0 18.09 0 9.18 0 0 Z " fill="#FCFCFC" transform="translate(1041,1197)"/>
<path d="M0 0 C44.55 0 89.1 0 135 0 C135 8.58 135 17.16 135 26 C117.18 26 99.36 26 81 26 C81 61.97 81 97.94 81 135 C72.09 135 63.18 135 54 135 C54 99.36 54 63.72 54 27 C36.18 27 18.36 27 0 27 C0 18.09 0 9.18 0 0 Z " fill="#FCFCFC" transform="translate(878,1197)"/>
<path d="M0 0 C1.3046875 1.328125 1.3046875 1.328125 2.875 3.25 C6.13636528 7.08690034 9.56832128 10.69004323 13.125 14.25 C13.62757324 14.75692383 14.13014648 15.26384766 14.64794922 15.78613281 C22.63131639 23.7406223 27.70456375 25.04474423 38.875 25.1875 C39.57497101 25.19935333 40.27494202 25.21120667 40.99612427 25.22341919 C49.16928009 25.26653163 55.88884935 24.85120077 62.13012695 18.97802734 C64.45785837 16.35001449 66.62324054 13.65885837 68.66601562 10.80371094 C70.4279386 8.42137439 72.45312114 6.4994975 74.6875 4.5625 C75.24824219 4.04816406 75.80898438 3.53382813 76.38671875 3.00390625 C78 2 78 2 82 2 C83.859375 3.50390625 83.859375 3.50390625 85.75 5.5625 C88.96660747 8.9521717 92.27537306 12.05693354 95.84765625 15.06640625 C98 17 98 17 99.27685547 18.70703125 C102.95265374 23.24407011 106.10009913 24.61831604 111.875 25.4921875 C114.60596249 25.69313239 117.26875503 25.83224016 120 25.875 C120.70310303 25.89457764 121.40620605 25.91415527 122.13061523 25.93432617 C131.98882834 26.04745872 138.57248215 24.06392821 145.8671875 17.32980347 C151.0066908 12.26204301 155.63759849 6.74391721 160 1 C162.83803668 2.29948147 164.97960452 3.69986457 167.25 5.8359375 C167.85320068 6.40038574 168.45640137 6.96483398 169.07788086 7.54638672 C169.71218018 8.1498291 170.34647949 8.75327148 171 9.375 C171.65556885 9.99262207 172.3111377 10.61024414 172.98657227 11.24658203 C179.11140698 17.04453159 185.08652724 22.98741876 191 29 C189.34763349 33.29067546 186.1094793 36.1429553 182.8984375 39.296875 C182.30197418 39.89050842 181.70551086 40.48414185 181.0909729 41.09576416 C179.1903019 42.98526627 177.28278526 44.86768392 175.375 46.75 C174.08287532 48.03209065 172.79120324 49.31463761 171.5 50.59765625 C168.33855521 53.73708432 165.1709539 56.87017801 162 60 C158.15303519 58.4836309 156.38528296 56.22878826 153.88671875 52.9921875 C145.59364563 42.97757218 138.1488064 34.84930177 124.58544922 33.23876953 C112.543515 32.89284786 104.74260896 34.96688642 95.96118164 43.00662231 C90.52300334 48.27998033 85.64348658 54.02156899 81 60 C77.15303519 58.4836309 75.38528296 56.22878826 72.88671875 52.9921875 C64.59364563 42.97757218 57.1488064 34.84930177 43.58544922 33.23876953 C31.543515 32.89284786 23.74260896 34.96688642 14.96118164 43.00662231 C9.52300334 48.27998033 4.64348658 54.02156899 0 60 C-4.29067546 58.34763349 -7.1429553 55.1094793 -10.296875 51.8984375 C-10.89050842 51.30197418 -11.48414185 50.70551086 -12.09576416 50.0909729 C-13.98526627 48.1903019 -15.86768392 46.28278526 -17.75 44.375 C-19.03209065 43.08287532 -20.31463761 41.79120324 -21.59765625 40.5 C-24.73708432 37.33855521 -27.87017801 34.1709539 -31 31 C-29.34505714 26.73294513 -26.15086959 23.8628007 -22.96875 20.703125 C-22.37703003 20.10949158 -21.78531006 19.51585815 -21.17565918 18.90423584 C-19.92734419 17.65456282 -18.67651177 16.40740008 -17.42333984 15.16259766 C-15.49992003 13.24992048 -13.58743901 11.32676881 -11.67578125 9.40234375 C-10.46157861 8.18946202 -9.24675607 6.97720048 -8.03125 5.765625 C-7.45725464 5.18758118 -6.88325928 4.60953735 -6.29187012 4.01397705 C-2.22993434 0 -2.22993434 0 0 0 Z " fill="#FCFCFC" transform="translate(900,670)"/>
<path d="M0 0 C9.24 0 18.48 0 28 0 C28 35.97 28 71.94 28 109 C63.64 109 99.28 109 136 109 C136 117.91 136 126.82 136 136 C100.03 136 64.06 136 27 136 C27 127.09 27 118.18 27 109 C18.09 109 9.18 109 0 109 C0 73.03 0 37.06 0 0 Z " fill="#F5F5F5" transform="translate(1473,1196)"/>
<path d="M0 0 C3.7586992 1.49555895 5.42988114 3.58095337 7.82421875 6.7890625 C15.48621145 16.2587233 22.53442642 23.86042896 35.00244141 25.46328735 C45.28409149 26.32569707 55.11935834 25.78099855 63.50787354 19.26861572 C70.15107423 13.59283716 75.75975469 6.9687285 81 0 C84.7586992 1.49555895 86.42988114 3.58095337 88.82421875 6.7890625 C96.48621145 16.2587233 103.53442642 23.86042896 116.00244141 25.46328735 C126.28409149 26.32569707 136.11935834 25.78099855 144.50787354 19.26861572 C151.15107423 13.59283716 156.75975469 6.9687285 162 0 C166.29067546 1.65236651 169.1429553 4.8905207 172.296875 8.1015625 C172.89050842 8.69802582 173.48414185 9.29448914 174.09576416 9.9090271 C175.98526627 11.8096981 177.86768392 13.71721474 179.75 15.625 C181.03209065 16.91712468 182.31463761 18.20879676 183.59765625 19.5 C186.73708432 22.66144479 189.87017801 25.8290461 193 29 C189.28984473 33.4266071 185.47851707 37.64214876 181.3828125 41.71484375 C180.62978348 42.46575035 180.62978348 42.46575035 179.86154175 43.23182678 C178.28506329 44.80278598 176.70511427 46.37019877 175.125 47.9375 C174.04403726 49.01343727 172.96330617 50.08960731 171.8828125 51.16601562 C169.25787359 53.78003292 166.62981372 56.39088596 164 59 C160.2413008 57.50444105 158.57011886 55.41904663 156.17578125 52.2109375 C148.51378855 42.7412767 141.46557358 35.13957104 128.99755859 33.53671265 C118.71590851 32.67430293 108.88064166 33.21900145 100.49212646 39.73138428 C93.84892577 45.40716284 88.24024531 52.0312715 83 59 C79.2413008 57.50444105 77.57011886 55.41904663 75.17578125 52.2109375 C67.51378855 42.7412767 60.46557358 35.13957104 47.99755859 33.53671265 C37.71590851 32.67430293 27.88064166 33.21900145 19.49212646 39.73138428 C12.84892577 45.40716284 7.24024531 52.0312715 2 59 C-2.29067546 57.34763349 -5.1429553 54.1094793 -8.296875 50.8984375 C-8.89050842 50.30197418 -9.48414185 49.70551086 -10.09576416 49.0909729 C-11.98526627 47.1903019 -13.86768392 45.28278526 -15.75 43.375 C-17.03209065 42.08287532 -18.31463761 40.79120324 -19.59765625 39.5 C-22.73708432 36.33855521 -25.87017801 33.1709539 -29 30 C-25.28984473 25.5733929 -21.47851707 21.35785124 -17.3828125 17.28515625 C-16.88079315 16.78455185 -16.3787738 16.28394745 -15.86154175 15.76817322 C-14.28506329 14.19721402 -12.70511427 12.62980123 -11.125 11.0625 C-10.04403726 9.98656273 -8.96330617 8.91039269 -7.8828125 7.83398438 C-5.25787359 5.21996708 -2.62981372 2.60911404 0 0 Z " fill="#FEFEFE" transform="translate(938,1012)"/>
<path d="M0 0 C8.91 0 17.82 0 27 0 C27 44.55 27 89.1 27 135 C18.09 135 9.18 135 0 135 C0 126.09 0 117.18 0 108 C-8.91 108 -17.82 108 -27 108 C-27 99.09 -27 90.18 -27 81 C-18.09 81 -9.18 81 0 81 C0 54.27 0 27.54 0 0 Z " fill="#FFFFFF" transform="translate(1257,1197)"/>
<path d="M0 0 C8.91 0 17.82 0 27 0 C27 8.91 27 17.82 27 27 C35.91 27 44.82 27 54 27 C54 35.91 54 44.82 54 54 C45.09 54 36.18 54 27 54 C27 80.73 27 107.46 27 135 C18.09 135 9.18 135 0 135 C0 90.45 0 45.9 0 0 Z " fill="#FDFDFD" transform="translate(1149,1197)"/>
<path d="M0 0 C8.91 0 17.82 0 27 0 C27 44.55 27 89.1 27 135 C18.09 135 9.18 135 0 135 C0 126.09 0 117.18 0 108 C-8.91 108 -17.82 108 -27 108 C-27 99.09 -27 90.18 -27 81 C-18.09 81 -9.18 81 0 81 C0 54.27 0 27.54 0 0 Z " fill="#FDFDFD" transform="translate(824,1197)"/>
<path d="M0 0 C8.91 0 17.82 0 27 0 C27 8.91 27 17.82 27 27 C35.91 27 44.82 27 54 27 C54 35.91 54 44.82 54 54 C45.09 54 36.18 54 27 54 C27 80.73 27 107.46 27 135 C18.09 135 9.18 135 0 135 C0 90.45 0 45.9 0 0 Z " fill="#FEFEFE" transform="translate(716,1197)"/>
<path d="M0 0 C3.84696481 1.5163691 5.61471704 3.77121174 8.11328125 7.0078125 C16.40635437 17.02242782 23.8511936 25.15069823 37.41455078 26.76123047 C49.456485 27.10715214 57.25739104 25.03311358 66.03881836 16.99337769 C71.47699666 11.72001967 76.35651342 5.97843101 81 0 C85.29067546 1.65236651 88.1429553 4.8905207 91.296875 8.1015625 C91.89050842 8.69802582 92.48414185 9.29448914 93.09576416 9.9090271 C94.98526627 11.8096981 96.86768392 13.71721474 98.75 15.625 C100.03209065 16.91712468 101.31463761 18.20879676 102.59765625 19.5 C105.73708432 22.66144479 108.87017801 25.8290461 112 29 C110.34763349 33.29067546 107.1094793 36.1429553 103.8984375 39.296875 C103.30197418 39.89050842 102.70551086 40.48414185 102.0909729 41.09576416 C100.1903019 42.98526627 98.28278526 44.86768392 96.375 46.75 C95.08287532 48.03209065 93.79120324 49.31463761 92.5 50.59765625 C89.33855521 53.73708432 86.1709539 56.87017801 83 60 C79.36273274 58.46610588 77.04017867 56.28469205 74.26953125 53.5 C73.38458984 52.613125 72.49964844 51.72625 71.58789062 50.8125 C70.21407227 49.4203125 70.21407227 49.4203125 68.8125 48 C67.88501953 47.071875 66.95753906 46.14375 66.00195312 45.1875 C59.14037187 38.28074374 59.14037187 38.28074374 58 36 C38.72496119 33.54741325 38.72496119 33.54741325 21.0390625 38.87109375 C18.02693007 41.70919532 15.5648145 44.89538155 13.22851562 48.30322266 C11.5269739 50.653325 9.48565586 52.41691854 7.25 54.25 C5.41840113 55.79491383 3.69700302 57.30299698 2 59 C-2.65422506 58.48945142 -5.18733832 55.19010781 -8.296875 51.99609375 C-8.89050842 51.39821548 -9.48414185 50.80033722 -10.09576416 50.18434143 C-11.98767195 48.27565898 -13.86887499 46.3568046 -15.75 44.4375 C-17.03186002 43.14059164 -18.3144043 41.84435922 -19.59765625 40.54882812 C-22.73976072 37.37367043 -25.87230539 34.18935054 -29 31 C-27.34763349 26.70932454 -24.1094793 23.8570447 -20.8984375 20.703125 C-20.30197418 20.10949158 -19.70551086 19.51585815 -19.0909729 18.90423584 C-17.1903019 17.01473373 -15.28278526 15.13231608 -13.375 13.25 C-12.08287532 11.96790935 -10.79120324 10.68536239 -9.5 9.40234375 C-6.33855521 6.26291568 -3.1709539 3.12982199 0 0 Z " fill="#FBFBFB" transform="translate(979,811)"/>
<path d="M0 0 C3.84696481 1.5163691 5.61471704 3.77121174 8.11328125 7.0078125 C16.40635437 17.02242782 23.8511936 25.15069823 37.41455078 26.76123047 C49.456485 27.10715214 57.25739104 25.03311358 66.03881836 16.99337769 C71.47699666 11.72001967 76.35651342 5.97843101 81 0 C85.29067546 1.65236651 88.1429553 4.8905207 91.296875 8.1015625 C91.89050842 8.69802582 92.48414185 9.29448914 93.09576416 9.9090271 C94.98526627 11.8096981 96.86768392 13.71721474 98.75 15.625 C100.03209065 16.91712468 101.31463761 18.20879676 102.59765625 19.5 C105.73708432 22.66144479 108.87017801 25.8290461 112 29 C110.40479963 32.9000765 107.87783818 35.36575829 104.9140625 38.31640625 C104.41587006 38.81414047 103.91767761 39.31187469 103.40438843 39.82469177 C102.35268722 40.87338013 101.29856484 41.91964526 100.2421875 42.96362305 C98.63224321 44.5553388 97.03041777 46.15488314 95.4296875 47.75585938 C85.72041532 57.4185809 85.72041532 57.4185809 83 59 C81.00708008 58.99438477 81.00708008 58.99438477 79 58 C77.01831055 55.86694336 77.01831055 55.86694336 74.88671875 53.08984375 C64.28679162 40.05030774 64.28679162 40.05030774 49.109375 34.12109375 C39.3002359 33.24725585 27.71467916 33.34924303 19.77539062 39.78491211 C17.73935779 41.82387777 15.97467003 43.96849436 14.27978516 46.296875 C12.08815775 49.21347035 9.50546919 51.73052833 6.9375 54.3125 C5.65166016 55.69888672 5.65166016 55.69888672 4.33984375 57.11328125 C2 59 2 59 0.05688477 58.81640625 C-2.37511494 57.85111165 -3.50157459 56.76228678 -5.25 54.82421875 C-5.85320068 54.16615234 -6.45640137 53.50808594 -7.07788086 52.83007812 C-7.71218018 52.12302734 -8.34647949 51.41597656 -9 50.6875 C-10.332949 49.2315272 -11.66760772 47.77711794 -13.00390625 46.32421875 C-14.00381592 45.23439697 -14.00381592 45.23439697 -15.02392578 44.12255859 C-17.92309582 41.00847603 -20.91568749 37.99460144 -23.9375 35 C-24.45119141 34.49041748 -24.96488281 33.98083496 -25.49414062 33.45581055 C-26.66060054 32.30168664 -27.82992805 31.1504618 -29 30 C-23.47349666 23.25919575 -17.30550441 17.1928871 -11.125 11.0625 C-10.04403726 9.98656273 -8.96330617 8.91039269 -7.8828125 7.83398438 C-5.25787359 5.21996708 -2.62981372 2.60911404 0 0 Z " fill="#FCFCFC" transform="translate(938,871)"/>
<path d="M0 0 C3.76234654 1.49142743 5.37053935 3.54735409 7.71875 6.7890625 C15.10405388 16.09095674 21.6941913 23.41565853 33.8671875 24.9140625 C44.75727984 25.84919184 57.46098833 26.23508817 66.6484375 19.578125 C70.46213365 16.1323503 73.31611515 12.36911487 76 8 C79.56764285 9.51376081 81.83706287 11.60513129 84.546875 14.3515625 C85.39121094 15.20234375 86.23554687 16.053125 87.10546875 16.9296875 C88.41451172 18.26386719 88.41451172 18.26386719 89.75 19.625 C90.63816406 20.5221875 91.52632812 21.419375 92.44140625 22.34375 C94.63216969 24.55807004 96.81812763 26.77692435 99 29 C94.47008204 34.43733055 89.65705784 39.46458931 84.625 44.4375 C83.52091797 45.53481445 83.52091797 45.53481445 82.39453125 46.65429688 C80.59863926 48.43852723 78.80044015 50.22036124 77 52 C70.5807528 46.69714362 70.5807528 46.69714362 67.87548828 43.44970703 C62.70443739 37.41115513 58.23642598 34.67536273 50.36257935 34.00323486 C48.19672527 33.90001421 46.04320605 33.87452008 43.875 33.875 C42.76297211 33.85445557 42.76297211 33.85445557 41.628479 33.83349609 C30.29906052 33.78716524 23.12745036 36.66442379 15.04736328 44.60595703 C10.3843119 49.48905894 6.06883796 54.61150663 2 60 C-4.92810724 54.33425951 -11.14204142 47.96966361 -17.4375 41.625 C-18.56161467 40.49586045 -19.68596174 39.36695222 -20.81054688 38.23828125 C-23.54305235 35.49484812 -26.27239009 32.74830015 -29 30 C-23.47349666 23.25919575 -17.30550441 17.1928871 -11.125 11.0625 C-10.04403726 9.98656273 -8.96330617 8.91039269 -7.8828125 7.83398438 C-5.25787359 5.21996708 -2.62981372 2.60911404 0 0 Z " fill="#FBFBFB" transform="translate(1055,941)"/>
<path d="M0 0 C6.74080425 5.52650334 12.8071129 11.69449559 18.9375 17.875 C20.01343727 18.95596274 21.08960731 20.03669383 22.16601562 21.1171875 C24.78003292 23.74212641 27.39088596 26.37018628 30 29 C28.34763349 33.29067546 25.1094793 36.1429553 21.8984375 39.296875 C21.30197418 39.89050842 20.70551086 40.48414185 20.0909729 41.09576416 C18.1903019 42.98526627 16.28278526 44.86768392 14.375 46.75 C13.08287532 48.03209065 11.79120324 49.31463761 10.5 50.59765625 C7.33855521 53.73708432 4.1709539 56.87017801 1 60 C-2.96051409 56.76190417 -6.49090495 53.70969329 -9.42578125 49.4765625 C-15.04707414 42.1982192 -20.6620148 36.19667031 -30.00520325 34.54373169 C-41.16913694 33.11334557 -54.39476087 32.62673187 -63.75 39.6328125 C-67.76683959 43.31371972 -71.08962804 47.39968531 -74 52 C-79.03830318 47.78955665 -83.72106922 43.37756517 -88.3125 38.6875 C-89.53542986 37.43911894 -90.76058417 36.19291188 -91.98828125 34.94921875 C-92.51977783 34.40612061 -93.05127441 33.86302246 -93.59887695 33.3034668 C-94.98758593 31.88879476 -94.98758593 31.88879476 -97 31 C-95.48623919 27.43235715 -93.39486871 25.16293713 -90.6484375 22.453125 C-89.37226562 21.18662109 -89.37226562 21.18662109 -88.0703125 19.89453125 C-87.18085937 19.02183594 -86.29140625 18.14914062 -85.375 17.25 C-84.4778125 16.36183594 -83.580625 15.47367188 -82.65625 14.55859375 C-80.44192996 12.36783031 -78.22307565 10.18187237 -76 8 C-72.68712741 9.41930528 -71.92180422 10.1128292 -69.7421875 13.2578125 C-65.17947782 19.73397015 -60.37234209 23.83406451 -52.42492676 25.4413147 C-41.87094361 27.09838548 -29.26859493 27.85873516 -20.09570312 21.58300781 C-12.29767883 15.51978996 -5.92636862 7.84848113 0 0 Z " fill="#FDFDFD" transform="translate(943,741)"/>
<path d="M0 0 C35.97 0 71.94 0 109 0 C109 8.91 109 17.82 109 27 C73.03 27 37.06 27 0 27 C0 18.09 0 9.18 0 0 Z " fill="#FBFBFB" transform="translate(418,1197)"/>
<path d="M0 0 C35.64 0 71.28 0 108 0 C108 8.91 108 17.82 108 27 C72.36 27 36.72 27 0 27 C0 18.09 0 9.18 0 0 Z " fill="#FEFEFE" transform="translate(391,1305)"/>
<path d="M0 0 C8.58 0 17.16 0 26 0 C26 35.64 26 71.28 26 108 C17.42 108 8.84 108 0 108 C0 72.36 0 36.72 0 0 Z " fill="#FFFFFF" transform="translate(1474,1197)"/>
<path d="M0 0 C26.73 0 53.46 0 81 0 C81 8.91 81 17.82 81 27 C54.27 27 27.54 27 0 27 C0 18.09 0 9.18 0 0 Z " fill="#FEFEFE" transform="translate(418,1251)"/>
<path d="M0 0 C7.26 0 14.52 0 22 0 C22 2.31 22 4.62 22 7 C24.31 7 26.62 7 29 7 C29 14.26 29 21.52 29 29 C26.69 29 24.38 29 22 29 C22 31.31 22 33.62 22 36 C14.74 36 7.48 36 0 36 C0 33.69 0 31.38 0 29 C-2.31 29 -4.62 29 -7 29 C-7 21.74 -7 14.48 -7 7 C-4.69 7 -2.38 7 0 7 C0 4.69 0 2.38 0 0 Z " fill="#1E1E1E" transform="translate(1434,882)"/>
<path d="M0 0 C5.43733055 4.52991796 10.46458931 9.34294216 15.4375 14.375 C16.53481445 15.47908203 16.53481445 15.47908203 17.65429688 16.60546875 C19.43852723 18.40136074 21.22036124 20.19955985 23 22 C18.63655925 27.18749613 14.11578879 32.15532939 9.375 37 C8.72015625 37.69222656 8.0653125 38.38445312 7.390625 39.09765625 C6.75382813 39.74605469 6.11703125 40.39445312 5.4609375 41.0625 C4.89165527 41.65160156 4.32237305 42.24070312 3.73583984 42.84765625 C2 44 2 44 -0.11157227 43.76782227 C-2.39622402 42.83889793 -3.61143122 41.71976538 -5.3125 39.9375 C-5.91449219 39.30972656 -6.51648438 38.68195313 -7.13671875 38.03515625 C-9.59171952 35.35369838 -11.9820869 32.62095335 -14.35546875 29.8671875 C-16.47130895 27.46487962 -18.7024661 25.22791166 -21 23 C-19.48623919 19.43235715 -17.39486871 17.16293713 -14.6484375 14.453125 C-13.79765625 13.60878906 -12.946875 12.76445313 -12.0703125 11.89453125 C-11.18085937 11.02183594 -10.29140625 10.14914062 -9.375 9.25 C-8.4778125 8.36183594 -7.580625 7.47367188 -6.65625 6.55859375 C-4.44192996 4.36783031 -2.22307565 2.18187237 0 0 Z " fill="#FCFCFC" transform="translate(863,1019)"/>
<path d="M0 0 C3.56764285 1.51376081 5.83706287 3.60513129 8.546875 6.3515625 C9.39121094 7.20234375 10.23554687 8.053125 11.10546875 8.9296875 C12.41451172 10.26386719 12.41451172 10.26386719 13.75 11.625 C14.63816406 12.5221875 15.52632812 13.419375 16.44140625 14.34375 C18.63216969 16.55807004 20.81812763 18.77692435 23 21 C21.48623919 24.56764285 19.39486871 26.83706287 16.6484375 29.546875 C15.79765625 30.39121094 14.946875 31.23554687 14.0703125 32.10546875 C13.18085937 32.97816406 12.29140625 33.85085938 11.375 34.75 C10.4778125 35.63816406 9.580625 36.52632812 8.65625 37.44140625 C6.44192996 39.63216969 4.22307565 41.81812763 2 44 C-3.43733055 39.47008204 -8.46458931 34.65705784 -13.4375 29.625 C-14.53481445 28.52091797 -14.53481445 28.52091797 -15.65429688 27.39453125 C-17.43852723 25.59863926 -19.22036124 23.80044015 -21 22 C-16.61557474 16.74825074 -11.99157907 11.86777527 -7.125 7.0625 C-6.43664063 6.37865234 -5.74828125 5.69480469 -5.0390625 4.99023438 C-3.36166489 3.32448536 -1.68196209 1.6611378 0 0 Z " fill="#FCFCFC" transform="translate(1094,879)"/>
<path d="M0 0 C7.25036037 3.45255256 12.31377661 10.21542011 17.45703125 16.23828125 C18.91080366 17.89815811 20.42141586 19.45933981 22 21 C20.48623919 24.56764285 18.39486871 26.83706287 15.6484375 29.546875 C14.79765625 30.39121094 13.946875 31.23554687 13.0703125 32.10546875 C12.18085937 32.97816406 11.29140625 33.85085938 10.375 34.75 C9.4778125 35.63816406 8.580625 36.52632812 7.65625 37.44140625 C5.44192996 39.63216969 3.22307565 41.81812763 1 44 C-4.25174926 39.61557474 -9.13222473 34.99157907 -13.9375 30.125 C-14.96327148 29.09246094 -14.96327148 29.09246094 -16.00976562 28.0390625 C-17.67551464 26.36166489 -19.3388622 24.68196209 -21 23 C-19.48623919 19.43235715 -17.39486871 17.16293713 -14.6484375 14.453125 C-13.79765625 13.60878906 -12.946875 12.76445313 -12.0703125 11.89453125 C-11.18085937 11.02183594 -10.29140625 10.14914062 -9.375 9.25 C-8.4778125 8.36183594 -7.580625 7.47367188 -6.65625 6.55859375 C-4.44192996 4.36783031 -2.22307565 2.18187237 0 0 Z " fill="#FDFDFD" transform="translate(904,819)"/>
<path d="M0 0 C5.25174926 4.38442526 10.13222473 9.00842093 14.9375 13.875 C15.62134766 14.56335938 16.30519531 15.25171875 17.00976562 15.9609375 C18.67551464 17.63833511 20.3388622 19.31803791 22 21 C20.48623919 24.56764285 18.39486871 26.83706287 15.6484375 29.546875 C14.79765625 30.39121094 13.946875 31.23554687 13.0703125 32.10546875 C12.18085937 32.97816406 11.29140625 33.85085938 10.375 34.75 C9.4778125 35.63816406 8.580625 36.52632812 7.65625 37.44140625 C5.44192996 39.63216969 3.22307565 41.81812763 1 44 C-4.25174926 39.61557474 -9.13222473 34.99157907 -13.9375 30.125 C-14.96327148 29.09246094 -14.96327148 29.09246094 -16.00976562 28.0390625 C-17.67551464 26.36166489 -19.3388622 24.68196209 -21 23 C-19.48623919 19.43235715 -17.39486871 17.16293713 -14.6484375 14.453125 C-13.79765625 13.60878906 -12.946875 12.76445313 -12.0703125 11.89453125 C-11.18085937 11.02183594 -10.29140625 10.14914062 -9.375 9.25 C-8.4778125 8.36183594 -7.580625 7.47367188 -6.65625 6.55859375 C-4.44192996 4.36783031 -2.22307565 2.18187237 0 0 Z " fill="#FEFEFE" transform="translate(1136,678)"/>
<path d="M0 0 C9.57 0 19.14 0 29 0 C29 2.31 29 4.62 29 7 C19.76 7 10.52 7 1 7 C1 9.31 1 11.62 1 14 C7.93 14 14.86 14 22 14 C22 16.31 22 18.62 22 21 C24.64 21 27.28 21 30 21 C30 23.64 30 26.28 30 29 C27.36 29 24.72 29 22 29 C22 31.31 22 33.62 22 36 C14.74 36 7.48 36 0 36 C0 33.69 0 31.38 0 29 C-2.31 29 -4.62 29 -7 29 C-7 21.74 -7 14.48 -7 7 C-4.69 7 -2.38 7 0 7 C0 4.69 0 2.38 0 0 Z " fill="#E8E8E8" transform="translate(1520,882)"/>
<path d="M0 0 C11.55 0 23.1 0 35 0 C35 2.31 35 4.62 35 7 C25.76 7 16.52 7 7 7 C7 9.31 7 11.62 7 14 C14.26 14 21.52 14 29 14 C29 16.64 29 19.28 29 22 C21.74 22 14.48 22 7 22 C7 24.31 7 26.62 7 29 C16.24 29 25.48 29 35 29 C35 31.31 35 33.62 35 36 C23.45 36 11.9 36 0 36 C0 24.12 0 12.24 0 0 Z " fill="#F7F7F7" transform="translate(469,882)"/>
<path d="M0 0 C7.26 0 14.52 0 22 0 C22 2.31 22 4.62 22 7 C24.64 7 27.28 7 30 7 C30 9.64 30 12.28 30 15 C27.36 15 24.72 15 22 15 C22 17.31 22 19.62 22 22 C17.38 22 12.76 22 8 22 C8 23.98 8 25.96 8 28 C14.93 28 21.86 28 29 28 C29 30.64 29 33.28 29 36 C17.12 36 5.24 36 -7 36 C-7 33.36 -7 30.72 -7 28 C-4.69 28 -2.38 28 0 28 C0 25.69 0 23.38 0 21 C2.31 21 4.62 21 7 21 C7 18.69 7 16.38 7 14 C11.95 14 16.9 14 22 14 C22 12.02 22 10.04 22 8 C15.07 8 8.14 8 1 8 C1 10.31 1 12.62 1 15 C-1.64 15 -4.28 15 -7 15 C-7 12.36 -7 9.72 -7 7 C-4.69 7 -2.38 7 0 7 C0 4.69 0 2.38 0 0 Z " fill="#7F7F7F" transform="translate(1477,882)"/>
<path d="M0 0 C7.26 0 14.52 0 22 0 C22 2.31 22 4.62 22 7 C24.31 7 26.62 7 29 7 C29 9.64 29 12.28 29 15 C26.69 15 24.38 15 22 15 C22 17.31 22 19.62 22 22 C17.38 22 12.76 22 8 22 C8 23.98 8 25.96 8 28 C14.93 28 21.86 28 29 28 C29 30.64 29 33.28 29 36 C17.12 36 5.24 36 -7 36 C-7 33.69 -7 31.38 -7 29 C-4.69 29 -2.38 29 0 29 C0 26.36 0 23.72 0 21 C2.31 21 4.62 21 7 21 C7 18.69 7 16.38 7 14 C11.62 14 16.24 14 21 14 C21 12.02 21 10.04 21 8 C14.07 8 7.14 8 0 8 C0 9.98 0 11.96 0 14 C-2.31 14 -4.62 14 -7 14 C-7 11.69 -7 9.38 -7 7 C-4.69 7 -2.38 7 0 7 C0 4.69 0 2.38 0 0 Z " fill="#7D7D7D" transform="translate(1391,882)"/>
<path d="M0 0 C8.91 0 17.82 0 27 0 C27 8.91 27 17.82 27 27 C18.09 27 9.18 27 0 27 C0 18.09 0 9.18 0 0 Z " fill="#FBFBFB" transform="translate(500,1278)"/>
<path d="M0 0 C8.91 0 17.82 0 27 0 C27 8.91 27 17.82 27 27 C18.09 27 9.18 27 0 27 C0 18.09 0 9.18 0 0 Z " fill="#FEFEFE" transform="translate(1203,1251)"/>
<path d="M0 0 C8.91 0 17.82 0 27 0 C27 8.91 27 17.82 27 27 C18.09 27 9.18 27 0 27 C0 18.09 0 9.18 0 0 Z " fill="#FDFDFD" transform="translate(770,1251)"/>
<path d="M0 0 C8.91 0 17.82 0 27 0 C27 8.91 27 17.82 27 27 C18.09 27 9.18 27 0 27 C0 18.09 0 9.18 0 0 Z " fill="#FBFBFB" transform="translate(391,1224)"/>
<path d="M0 0 C2.93230193 1.32120828 4.98664899 2.74638197 7.234375 5.0390625 C7.80800781 5.61914062 8.38164063 6.19921875 8.97265625 6.796875 C9.55917969 7.40015625 10.14570312 8.0034375 10.75 8.625 C11.35199219 9.23601562 11.95398438 9.84703125 12.57421875 10.4765625 C14.05405305 11.97988624 15.52764676 13.48934856 17 15 C15.67879172 17.93230193 14.25361803 19.98664899 11.9609375 22.234375 C11.38085938 22.80800781 10.80078125 23.38164063 10.203125 23.97265625 C9.59984375 24.55917969 8.9965625 25.14570312 8.375 25.75 C7.76398437 26.35199219 7.15296875 26.95398437 6.5234375 27.57421875 C5.02011376 29.05405305 3.51065144 30.52764676 2 32 C-0.93230193 30.67879172 -2.98664899 29.25361803 -5.234375 26.9609375 C-5.80800781 26.38085938 -6.38164063 25.80078125 -6.97265625 25.203125 C-7.55917969 24.59984375 -8.14570312 23.9965625 -8.75 23.375 C-9.35199219 22.76398438 -9.95398438 22.15296875 -10.57421875 21.5234375 C-12.05405305 20.02011376 -13.52764676 18.51065144 -15 17 C-13.67879172 14.06769807 -12.25361803 12.01335101 -9.9609375 9.765625 C-9.38085938 9.19199219 -8.80078125 8.61835937 -8.203125 8.02734375 C-7.59984375 7.44082031 -6.9965625 6.85429688 -6.375 6.25 C-5.76398437 5.64800781 -5.15296875 5.04601563 -4.5234375 4.42578125 C-3.02011376 2.94594695 -1.51065144 1.47235324 0 0 Z " fill="#FBFBFB" transform="translate(974,1095)"/>
<path d="M0 0 C4.11866904 3.41761899 8.11313049 6.94494358 12 10.625 C12.78375 11.35976562 13.5675 12.09453125 14.375 12.8515625 C16 15 16 15 15.79907227 16.91845703 C14.85542528 19.37660985 13.72287117 20.62099022 11.83984375 22.453125 C11.21142578 23.071875 10.58300781 23.690625 9.93554688 24.328125 C9.27619141 24.96234375 8.61683594 25.5965625 7.9375 26.25 C7.27427734 26.8996875 6.61105469 27.549375 5.92773438 28.21875 C4.29170683 29.8194676 2.64909088 31.41276193 1 33 C-3.32883834 29.37068427 -7.46656422 25.65033216 -11.4375 21.625 C-12.30246094 20.75101563 -13.16742187 19.87703125 -14.05859375 18.9765625 C-14.69925781 18.32429688 -15.33992187 17.67203125 -16 17 C-11.01595832 10.96668638 -5.58084697 5.4815829 0 0 Z " fill="#F9F9F9" transform="translate(797,1025)"/>
<path d="M0 0 C2.93230193 1.32120828 4.98664899 2.74638197 7.234375 5.0390625 C7.80800781 5.61914062 8.38164063 6.19921875 8.97265625 6.796875 C9.55917969 7.40015625 10.14570312 8.0034375 10.75 8.625 C11.35199219 9.23601563 11.95398437 9.84703125 12.57421875 10.4765625 C14.05405305 11.97988624 15.52764676 13.48934856 17 15 C15.67879172 17.93230193 14.25361803 19.98664899 11.9609375 22.234375 C11.38085938 22.80800781 10.80078125 23.38164063 10.203125 23.97265625 C9.59984375 24.55917969 8.9965625 25.14570312 8.375 25.75 C7.76398438 26.35199219 7.15296875 26.95398438 6.5234375 27.57421875 C5.02011376 29.05405305 3.51065144 30.52764676 2 32 C-0.93230193 30.67879172 -2.98664899 29.25361803 -5.234375 26.9609375 C-5.80800781 26.38085938 -6.38164063 25.80078125 -6.97265625 25.203125 C-7.55917969 24.59984375 -8.14570312 23.9965625 -8.75 23.375 C-9.35199219 22.76398437 -9.95398437 22.15296875 -10.57421875 21.5234375 C-12.05405305 20.02011376 -13.52764676 18.51065144 -15 17 C-13.67879172 14.06769807 -12.25361803 12.01335101 -9.9609375 9.765625 C-9.38085938 9.19199219 -8.80078125 8.61835937 -8.203125 8.02734375 C-7.59984375 7.44082031 -6.9965625 6.85429688 -6.375 6.25 C-5.76398438 5.64800781 -5.15296875 5.04601562 -4.5234375 4.42578125 C-3.02011376 2.94594695 -1.51065144 1.47235324 0 0 Z " fill="#FAFAFA" transform="translate(1197,955)"/>
<path d="M0 0 C2.93230193 1.32120828 4.98664899 2.74638197 7.234375 5.0390625 C7.80800781 5.61914062 8.38164063 6.19921875 8.97265625 6.796875 C9.55917969 7.40015625 10.14570312 8.0034375 10.75 8.625 C11.35199219 9.23601563 11.95398438 9.84703125 12.57421875 10.4765625 C14.05405305 11.97988624 15.52764676 13.48934856 17 15 C15.67879172 17.93230193 14.25361803 19.98664899 11.9609375 22.234375 C11.38085938 22.80800781 10.80078125 23.38164063 10.203125 23.97265625 C9.59984375 24.55917969 8.9965625 25.14570312 8.375 25.75 C7.76398437 26.35199219 7.15296875 26.95398438 6.5234375 27.57421875 C5.02011376 29.05405305 3.51065144 30.52764676 2 32 C-0.93230193 30.67879172 -2.98664899 29.25361803 -5.234375 26.9609375 C-5.80800781 26.38085938 -6.38164063 25.80078125 -6.97265625 25.203125 C-7.55917969 24.59984375 -8.14570312 23.9965625 -8.75 23.375 C-9.35199219 22.76398437 -9.95398438 22.15296875 -10.57421875 21.5234375 C-12.05405305 20.02011376 -13.52764676 18.51065144 -15 17 C-13.67879172 14.06769807 -12.25361803 12.01335101 -9.9609375 9.765625 C-9.38085938 9.19199219 -8.80078125 8.61835937 -8.203125 8.02734375 C-7.59984375 7.44082031 -6.9965625 6.85429688 -6.375 6.25 C-5.76398437 5.64800781 -5.15296875 5.04601562 -4.5234375 4.42578125 C-3.02011376 2.94594695 -1.51065144 1.47235324 0 0 Z " fill="#F9F9F9" transform="translate(837,825)"/>
<path d="M0 0 C2.93230193 1.32120828 4.98664899 2.74638197 7.234375 5.0390625 C7.80800781 5.61914062 8.38164063 6.19921875 8.97265625 6.796875 C9.55917969 7.40015625 10.14570312 8.0034375 10.75 8.625 C11.35199219 9.23601563 11.95398438 9.84703125 12.57421875 10.4765625 C14.05405305 11.97988624 15.52764676 13.48934856 17 15 C15.67879172 17.93230193 14.25361803 19.98664899 11.9609375 22.234375 C11.38085938 22.80800781 10.80078125 23.38164063 10.203125 23.97265625 C9.59984375 24.55917969 8.9965625 25.14570312 8.375 25.75 C7.76398437 26.35199219 7.15296875 26.95398438 6.5234375 27.57421875 C5.02011376 29.05405305 3.51065144 30.52764676 2 32 C-0.93230193 30.67879172 -2.98664899 29.25361803 -5.234375 26.9609375 C-5.80800781 26.38085938 -6.38164063 25.80078125 -6.97265625 25.203125 C-7.55917969 24.59984375 -8.14570312 23.9965625 -8.75 23.375 C-9.35199219 22.76398437 -9.95398438 22.15296875 -10.57421875 21.5234375 C-12.05405305 20.02011376 -13.52764676 18.51065144 -15 17 C-13.67879172 14.06769807 -12.25361803 12.01335101 -9.9609375 9.765625 C-9.38085938 9.19199219 -8.80078125 8.61835937 -8.203125 8.02734375 C-7.59984375 7.44082031 -6.9965625 6.85429688 -6.375 6.25 C-5.76398437 5.64800781 -5.15296875 5.04601562 -4.5234375 4.42578125 C-3.02011376 2.94594695 -1.51065144 1.47235324 0 0 Z " fill="#FAFAFA" transform="translate(801,755)"/>
<path d="M0 0 C2.93230193 1.32120828 4.98664899 2.74638197 7.234375 5.0390625 C7.80800781 5.61914062 8.38164063 6.19921875 8.97265625 6.796875 C9.55917969 7.40015625 10.14570312 8.0034375 10.75 8.625 C11.35199219 9.23601563 11.95398437 9.84703125 12.57421875 10.4765625 C14.05405305 11.97988624 15.52764676 13.48934856 17 15 C15.67879172 17.93230193 14.25361803 19.98664899 11.9609375 22.234375 C11.38085938 22.80800781 10.80078125 23.38164063 10.203125 23.97265625 C9.59984375 24.55917969 8.9965625 25.14570312 8.375 25.75 C7.76398438 26.35199219 7.15296875 26.95398438 6.5234375 27.57421875 C5.02011376 29.05405305 3.51065144 30.52764676 2 32 C-0.93230193 30.67879172 -2.98664899 29.25361803 -5.234375 26.9609375 C-5.80800781 26.38085938 -6.38164063 25.80078125 -6.97265625 25.203125 C-7.55917969 24.59984375 -8.14570312 23.9965625 -8.75 23.375 C-9.35199219 22.76398437 -9.95398437 22.15296875 -10.57421875 21.5234375 C-12.05405305 20.02011376 -13.52764676 18.51065144 -15 17 C-13.67879172 14.06769807 -12.25361803 12.01335101 -9.9609375 9.765625 C-9.38085938 9.19199219 -8.80078125 8.61835937 -8.203125 8.02734375 C-7.59984375 7.44082031 -6.9965625 6.85429688 -6.375 6.25 C-5.76398438 5.64800781 -5.15296875 5.04601562 -4.5234375 4.42578125 C-3.02011376 2.94594695 -1.51065144 1.47235324 0 0 Z " fill="#FAFAFA" transform="translate(1202,684)"/>
<path d="M0 0 C2.93230193 1.32120828 4.98664899 2.74638197 7.234375 5.0390625 C7.80800781 5.61914062 8.38164063 6.19921875 8.97265625 6.796875 C9.55917969 7.40015625 10.14570312 8.0034375 10.75 8.625 C11.35199219 9.23601563 11.95398437 9.84703125 12.57421875 10.4765625 C14.05405305 11.97988624 15.52764676 13.48934856 17 15 C12.10995345 20.76774721 7.07515796 26.39476999 2 32 C-0.93230193 30.67879172 -2.98664899 29.25361803 -5.234375 26.9609375 C-5.80800781 26.38085938 -6.38164063 25.80078125 -6.97265625 25.203125 C-7.55917969 24.59984375 -8.14570312 23.9965625 -8.75 23.375 C-9.35199219 22.76398437 -9.95398437 22.15296875 -10.57421875 21.5234375 C-12.05405305 20.02011376 -13.52764676 18.51065144 -15 17 C-13.67879172 14.06769807 -12.25361803 12.01335101 -9.9609375 9.765625 C-9.38085938 9.19199219 -8.80078125 8.61835937 -8.203125 8.02734375 C-7.59984375 7.44082031 -6.9965625 6.85429688 -6.375 6.25 C-5.76398438 5.64800781 -5.15296875 5.04601562 -4.5234375 4.42578125 C-3.02011376 2.94594695 -1.51065144 1.47235324 0 0 Z " fill="#FCFCFC" transform="translate(1161,885)"/>
<path d="M0 0 C2.93230193 1.32120828 4.98664899 2.74638197 7.234375 5.0390625 C7.80800781 5.61914062 8.38164063 6.19921875 8.97265625 6.796875 C9.55917969 7.40015625 10.14570312 8.0034375 10.75 8.625 C11.35199219 9.23601563 11.95398437 9.84703125 12.57421875 10.4765625 C14.05405305 11.97988624 15.52764676 13.48934856 17 15 C12.01595832 21.03331362 6.58084697 26.5184171 1 32 C-4.66129431 27.30233025 -9.85228904 22.25276628 -15 17 C-13.67879172 14.06769807 -12.25361803 12.01335101 -9.9609375 9.765625 C-9.38085938 9.19199219 -8.80078125 8.61835937 -8.203125 8.02734375 C-7.59984375 7.44082031 -6.9965625 6.85429688 -6.375 6.25 C-5.76398437 5.64800781 -5.15296875 5.04601562 -4.5234375 4.42578125 C-3.02011376 2.94594695 -1.51065144 1.47235324 0 0 Z " fill="#FDFDFD" transform="translate(1024,615)"/>
<path d="M0 0 C2.31 0 4.62 0 7 0 C7 2.31 7 4.62 7 7 C14.26 7 21.52 7 29 7 C29 9.31 29 11.62 29 14 C31.31 14 33.62 14 36 14 C36 16.64 36 19.28 36 22 C33.69 22 31.38 22 29 22 C29 24.31 29 26.62 29 29 C19.43 29 9.86 29 0 29 C0 26.36 0 23.72 0 21 C9.24 21 18.48 21 28 21 C28 19.02 28 17.04 28 15 C21.07 15 14.14 15 7 15 C7 12.69 7 10.38 7 8 C4.69 8 2.38 8 0 8 C0 5.36 0 2.72 0 0 Z " fill="#848484" transform="translate(512,889)"/>
<path d="M0 0 C11.88 0 23.76 0 36 0 C36 2.31 36 4.62 36 7 C31.05 7 26.1 7 21 7 C21 16.57 21 26.14 21 36 C18.69 36 16.38 36 14 36 C14 26.43 14 16.86 14 7 C9.38 7 4.76 7 0 7 C0 4.69 0 2.38 0 0 Z " fill="#FBFBFB" transform="translate(555,882)"/>
<path d="M0 0 C2.31 0 4.62 0 7 0 C7 2.31 7 4.62 7 7 C14.26 7 21.52 7 29 7 C29 9.31 29 11.62 29 14 C17.12 14 5.24 14 -7 14 C-7 11.69 -7 9.38 -7 7 C-4.69 7 -2.38 7 0 7 C0 4.69 0 2.38 0 0 Z " fill="#FDFDFD" transform="translate(1391,904)"/>
<path d="M0 0 C1.98 0 3.96 0 6 0 C6 2.31 6 4.62 6 7 C13.26 7 20.52 7 28 7 C28 9.31 28 11.62 28 14 C16.12 14 4.24 14 -8 14 C-8 11.69 -8 9.38 -8 7 C-5.36 7 -2.72 7 0 7 C0 4.69 0 2.38 0 0 Z " fill="#FDFDFD" transform="translate(1478,904)"/>
<path d="M0 0 C9.57 0 19.14 0 29 0 C29 2.31 29 4.62 29 7 C19.43 7 9.86 7 0 7 C0 4.69 0 2.38 0 0 Z " fill="#FCFCFC" transform="translate(512,911)"/>
<path d="M0 0 C9.57 0 19.14 0 29 0 C29 2.31 29 4.62 29 7 C19.43 7 9.86 7 0 7 C0 4.69 0 2.38 0 0 Z " fill="#FDFDFD" transform="translate(519,882)"/>
<path d="M0 0 C9.24 0 18.48 0 28 0 C28 2.31 28 4.62 28 7 C18.76 7 9.52 7 0 7 C0 4.69 0 2.38 0 0 Z " fill="#FFFFFF" transform="translate(1521,882)"/>
<path d="M0 0 C7.26 0 14.52 0 22 0 C22 2.31 22 4.62 22 7 C14.74 7 7.48 7 0 7 C0 4.69 0 2.38 0 0 Z " fill="#FBFBFB" transform="translate(1434,911)"/>
<path d="M0 0 C2.31 0 4.62 0 7 0 C7 7.26 7 14.52 7 22 C4.69 22 2.38 22 0 22 C0 14.74 0 7.48 0 0 Z " fill="#FAFAFA" transform="translate(1456,889)"/>
<path d="M0 0 C2.31 0 4.62 0 7 0 C7 7.26 7 14.52 7 22 C4.69 22 2.38 22 0 22 C0 14.74 0 7.48 0 0 Z " fill="#F7F7F7" transform="translate(1427,889)"/>
<path d="M0 0 C7.26 0 14.52 0 22 0 C22 2.31 22 4.62 22 7 C14.74 7 7.48 7 0 7 C0 4.69 0 2.38 0 0 Z " fill="#FBFBFB" transform="translate(1434,882)"/>
<path d="M0 0 C6.93 0 13.86 0 21 0 C21 2.31 21 4.62 21 7 C14.07 7 7.14 7 0 7 C0 4.69 0 2.38 0 0 Z " fill="#FFFFFF" transform="translate(1521,911)"/>
<path d="M0 0 C6.93 0 13.86 0 21 0 C21 2.31 21 4.62 21 7 C14.07 7 7.14 7 0 7 C0 4.69 0 2.38 0 0 Z " fill="#1B1B1B" transform="translate(1521,904)"/>
<path d="M0 0 C6.93 0 13.86 0 21 0 C21 2.31 21 4.62 21 7 C14.07 7 7.14 7 0 7 C0 4.69 0 2.38 0 0 Z " fill="#FFFFFF" transform="translate(1478,882)"/>
<path d="M0 0 C6.93 0 13.86 0 21 0 C21 2.31 21 4.62 21 7 C14.07 7 7.14 7 0 7 C0 4.69 0 2.38 0 0 Z " fill="#FEFEFE" transform="translate(1391,882)"/>
<path d="M0 0 C0.33 0 0.66 0 1 0 C1 2.31 1 4.62 1 7 C10.24 7 19.48 7 29 7 C29 9.31 29 11.62 29 14 C26.69 14 24.38 14 22 14 C22 12.02 22 10.04 22 8 C15.07 8 8.14 8 1 8 C1 10.31 1 12.62 1 15 C-1.64 15 -4.28 15 -7 15 C-7 12.36 -7 9.72 -7 7 C-4.69 7 -2.38 7 0 7 C0 4.69 0 2.38 0 0 Z " fill="#878787" transform="translate(1477,882)"/>
<path d="M0 0 C6.93 0 13.86 0 21 0 C21 1.98 21 3.96 21 6 C14.07 6 7.14 6 0 6 C0 4.02 0 2.04 0 0 Z " fill="#FEFEFE" transform="translate(519,897)"/>
<path d="M0 0 C9.57 0 19.14 0 29 0 C29 2.64 29 5.28 29 8 C26.36 8 23.72 8 21 8 C21 5.69 21 3.38 21 1 C14.07 1 7.14 1 0 1 C0 0.67 0 0.34 0 0 Z " fill="#C7C7C7" transform="translate(1521,903)"/>
<path d="M0 0 C4.62 0 9.24 0 14 0 C14 1.98 14 3.96 14 6 C9.38 6 4.76 6 0 6 C0 4.02 0 2.04 0 0 Z " fill="#FFFFFF" transform="translate(1485,897)"/>
<path d="M0 0 C4.62 0 9.24 0 14 0 C14 1.98 14 3.96 14 6 C9.38 6 4.76 6 0 6 C0 4.02 0 2.04 0 0 Z " fill="#FBFBFB" transform="translate(1398,897)"/>
<path d="M0 0 C2.64 0 5.28 0 8 0 C8 2.64 8 5.28 8 8 C5.36 8 2.72 8 0 8 C0 5.36 0 2.72 0 0 Z " fill="#D2D2D2" transform="translate(1441,896)"/>
<path d="M0 0 C2.31 0 4.62 0 7 0 C7 2.31 7 4.62 7 7 C4.69 7 2.38 7 0 7 C0 4.69 0 2.38 0 0 Z " fill="#FFFFFF" transform="translate(591,911)"/>
<path d="M0 0 C2.31 0 4.62 0 7 0 C7 2.31 7 4.62 7 7 C4.69 7 2.38 7 0 7 C0 4.69 0 2.38 0 0 Z " fill="#F2F2F2" transform="translate(541,904)"/>
<path d="M0 0 C2.31 0 4.62 0 7 0 C7 2.31 7 4.62 7 7 C4.69 7 2.38 7 0 7 C0 4.69 0 2.38 0 0 Z " fill="#F3F3F3" transform="translate(1499,889)"/>
<path d="M0 0 C2.31 0 4.62 0 7 0 C7 2.31 7 4.62 7 7 C4.69 7 2.38 7 0 7 C0 4.69 0 2.38 0 0 Z " fill="#F2F2F2" transform="translate(1413,889)"/>
<path d="M0 0 C2.31 0 4.62 0 7 0 C7 2.31 7 4.62 7 7 C4.69 7 2.38 7 0 7 C0 4.69 0 2.38 0 0 Z " fill="#F7F7F7" transform="translate(1384,889)"/>
<path d="M0 0 C2.31 0 4.62 0 7 0 C7 2.31 7 4.62 7 7 C4.69 7 2.38 7 0 7 C0 4.69 0 2.38 0 0 Z " fill="#F7F7F7" transform="translate(512,889)"/>
<path d="M0 0 C1.98 0 3.96 0 6 0 C6 1.98 6 3.96 6 6 C4.02 6 2.04 6 0 6 C0 4.02 0 2.04 0 0 Z " fill="#FFFFFF" transform="translate(1471,890)"/>
</svg>
