<svg xmlns="http://www.w3.org/2000/svg" viewBox="0 0 800 800" fill="none">
  <rect width="800" height="800" fill="#000000"/>
  
  <!-- Pixelated shield/S icon -->
  <g fill="#FFFFFF">
    <rect x="525" y="320" width="15" height="15"/>
    <rect x="445" y="335" width="15" height="15"/>
    <rect x="460" y="335" width="15" height="15"/>
    <rect x="475" y="335" width="15" height="15"/>
    <rect x="430" y="350" width="15" height="15"/>
    <rect x="445" y="350" width="15" height="15"/>
    <rect x="460" y="350" width="15" height="15"/>
    <rect x="320" y="365" width="15" height="15"/>
    <rect x="335" y="365" width="15" height="15"/>
    <rect x="350" y="365" width="15" height="15"/>
    <rect x="365" y="365" width="15" height="15"/>
    <rect x="380" y="365" width="15" height="15"/>
    <rect x="395" y="365" width="15" height="15"/>
    <rect x="410" y="365" width="15" height="15"/>
    <rect x="425" y="365" width="15" height="15"/>
    <rect x="440" y="365" width="15" height="15"/>
    <rect x="455" y="365" width="15" height="15"/>
    <rect x="470" y="365" width="15" height="15"/>
    <rect x="485" y="365" width="15" height="15"/>
    <rect x="500" y="365" width="15" height="15"/>
    <rect x="515" y="365" width="15" height="15"/>
    <rect x="530" y="365" width="15" height="15"/>
    <rect x="545" y="365" width="15" height="15"/>
    <rect x="560" y="365" width="15" height="15"/>
    <rect x="575" y="365" width="15" height="15"/>
    <rect x="590" y="365" width="15" height="15"/>
    <rect x="605" y="365" width="15" height="15"/>
    <rect x="620" y="365" width="15" height="15"/>
    <rect x="410" y="380" width="15" height="15"/>
    <rect x="425" y="380" width="15" height="15"/>
    <rect x="440" y="380" width="15" height="15"/>
    <rect x="455" y="380" width="15" height="15"/>
    <rect x="470" y="380" width="15" height="15"/>
    <rect x="485" y="380" width="15" height="15"/>
    <rect x="500" y="380" width="15" height="15"/>
    <rect x="515" y="380" width="15" height="15"/>
    <rect x="530" y="380" width="15" height="15"/>
    <rect x="305" y="395" width="15" height="15"/>
    <rect x="425" y="410" width="15" height="15"/>
    <rect x="440" y="410" width="15" height="15"/>
    <rect x="455" y="410" width="15" height="15"/>
    <rect x="470" y="410" width="15" height="15"/>
    <rect x="485" y="410" width="15" height="15"/>
    <rect x="500" y="410" width="15" height="15"/>
    <rect x="515" y="410" width="15" height="15"/>
    <rect x="530" y="425" width="15" height="15"/>
    <rect x="410" y="440" width="15" height="15"/>
    <rect x="425" y="440" width="15" height="15"/>
    <rect x="440" y="440" width="15" height="15"/>
    <rect x="455" y="440" width="15" height="15"/>
    <rect x="470" y="440" width="15" height="15"/>
    <rect x="485" y="440" width="15" height="15"/>
    <rect x="500" y="440" width="15" height="15"/>
    <rect x="515" y="455" width="15" height="15"/>
    <rect x="530" y="455" width="15" height="15"/>
    <rect x="545" y="455" width="15" height="15"/>
    <rect x="560" y="455" width="15" height="15"/>
    <rect x="575" y="455" width="15" height="15"/>
    <rect x="425" y="470" width="15" height="15"/>
    <rect x="440" y="470" width="15" height="15"/>
    <rect x="455" y="470" width="15" height="15"/>
    <rect x="470" y="470" width="15" height="15"/>
    <rect x="485" y="470" width="15" height="15"/>
    <rect x="500" y="485" width="15" height="15"/>
    <rect x="515" y="485" width="15" height="15"/>
    <rect x="530" y="485" width="15" height="15"/>
    <rect x="545" y="485" width="15" height="15"/>
    <rect x="560" y="485" width="15" height="15"/>
    <rect x="575" y="500" width="15" height="15"/>
    <rect x="410" y="515" width="15" height="15"/>
    <rect x="425" y="515" width="15" height="15"/>
    <rect x="440" y="515" width="15" height="15"/>
    <rect x="455" y="515" width="15" height="15"/>
    <rect x="470" y="515" width="15" height="15"/>
    <rect x="485" y="530" width="15" height="15"/>
    <rect x="500" y="530" width="15" height="15"/>
    <rect x="515" y="530" width="15" height="15"/>
    <rect x="530" y="530" width="15" height="15"/>
    <rect x="545" y="530" width="15" height="15"/>
    <rect x="525" y="545" width="15" height="15"/>
  </g>
  
  <!-- EST. text -->
  <text x="240" y="470" font-family="monospace" font-size="24" fill="#FFFFFF" font-weight="bold">EST.</text>
  
  <!-- 2026 text -->
  <text x="710" y="470" font-family="monospace" font-size="24" fill="#FFFFFF" font-weight="bold">2026</text>
  
  <!-- SENTINEL text -->
  <text x="200" y="660" font-family="monospace" font-size="72" fill="#FFFFFF" font-weight="bold" letter-spacing="8">SENTINEL</text>
</svg>
