<svg xmlns="http://www.w3.org/2000/svg" viewBox="0 0 600 150" fill="none">
  <rect width="600" height="150" fill="#000000"/>
  
  <!-- EST. text -->
  <text x="30" y="80" font-family="monospace" font-size="18" fill="#FFFFFF" font-weight="bold">EST.</text>
  
  <!-- Pixelated shield/S icon (scaled down) -->
  <g fill="#FFFFFF">
    <rect x="245" y="35" width="6" height="6"/>
    <rect x="225" y="41" width="6" height="6"/>
    <rect x="231" y="41" width="6" height="6"/>
    <rect x="237" y="41" width="6" height="6"/>
    <rect x="243" y="41" width="6" height="6"/>
    <rect x="249" y="41" width="6" height="6"/>
    <rect x="219" y="47" width="6" height="6"/>
    <rect x="225" y="47" width="6" height="6"/>
    <rect x="231" y="47" width="6" height="6"/>
    <rect x="237" y="47" width="6" height="6"/>
    <rect x="207" y="53" width="6" height="6"/>
    <rect x="213" y="53" width="6" height="6"/>
    <rect x="219" y="53" width="6" height="6"/>
    <rect x="225" y="53" width="6" height="6"/>
    <rect x="231" y="53" width="6" height="6"/>
    <rect x="237" y="53" width="6" height="6"/>
    <rect x="243" y="53" width="6" height="6"/>
    <rect x="249" y="53" width="6" height="6"/>
    <rect x="255" y="53" width="6" height="6"/>
    <rect x="261" y="53" width="6" height="6"/>
    <rect x="267" y="53" width="6" height="6"/>
    <rect x="219" y="59" width="6" height="6"/>
    <rect x="225" y="59" width="6" height="6"/>
    <rect x="231" y="59" width="6" height="6"/>
    <rect x="237" y="59" width="6" height="6"/>
    <rect x="243" y="59" width="6" height="6"/>
    <rect x="249" y="59" width="6" height="6"/>
    <rect x="255" y="59" width="6" height="6"/>
    <rect x="225" y="65" width="6" height="6"/>
    <rect x="231" y="65" width="6" height="6"/>
    <rect x="237" y="65" width="6" height="6"/>
    <rect x="243" y="65" width="6" height="6"/>
    <rect x="249" y="65" width="6" height="6"/>
    <rect x="255" y="71" width="6" height="6"/>
    <rect x="219" y="77" width="6" height="6"/>
    <rect x="225" y="77" width="6" height="6"/>
    <rect x="231" y="77" width="6" height="6"/>
    <rect x="237" y="77" width="6" height="6"/>
    <rect x="243" y="77" width="6" height="6"/>
    <rect x="249" y="83" width="6" height="6"/>
    <rect x="255" y="83" width="6" height="6"/>
    <rect x="261" y="83" width="6" height="6"/>
    <rect x="267" y="83" width="6" height="6"/>
    <rect x="225" y="89" width="6" height="6"/>
    <rect x="231" y="89" width="6" height="6"/>
    <rect x="237" y="89" width="6" height="6"/>
    <rect x="243" y="89" width="6" height="6"/>
    <rect x="249" y="95" width="6" height="6"/>
    <rect x="255" y="95" width="6" height="6"/>
    <rect x="261" y="95" width="6" height="6"/>
    <rect x="267" y="95" width="6" height="6"/>
    <rect x="219" y="101" width="6" height="6"/>
    <rect x="225" y="101" width="6" height="6"/>
    <rect x="231" y="101" width="6" height="6"/>
    <rect x="237" y="101" width="6" height="6"/>
    <rect x="243" y="107" width="6" height="6"/>
    <rect x="249" y="107" width="6" height="6"/>
    <rect x="255" y="107" width="6" height="6"/>
    <rect x="261" y="107" width="6" height="6"/>
    <rect x="255" y="113" width="6" height="6"/>
  </g>
  
  <!-- 2026 text -->
  <text x="530" y="80" font-family="monospace" font-size="18" fill="#FFFFFF" font-weight="bold">2026</text>
  
  <!-- SENTINEL text -->
  <text x="150" y="135" font-family="monospace" font-size="32" fill="#FFFFFF" font-weight="bold" letter-spacing="4">SENTINEL</text>
</svg>
